<?xml version="1.0" encoding="UTF-8" standalone="no"?>
<svg
   xmlns:dc="http://purl.org/dc/elements/1.1/"
   xmlns:cc="http://creativecommons.org/ns#"
   xmlns:rdf="http://www.w3.org/1999/02/22-rdf-syntax-ns#"
   xmlns:svg="http://www.w3.org/2000/svg"
   xmlns="http://www.w3.org/2000/svg"
   id="svg8"
   version="1.1"
   viewBox="0 0 132.29167 132.29167"
   height="500"
   width="500">
  <defs
     id="defs2" />
  <metadata
     id="metadata5">
    <rdf:RDF>
      <cc:Work
         rdf:about="">
        <dc:format>image/svg+xml</dc:format>
        <dc:type
           rdf:resource="http://purl.org/dc/dcmitype/StillImage" />
        <dc:title></dc:title>
      </cc:Work>
    </rdf:RDF>
  </metadata>
  <g
     transform="translate(0,-164.70832)"
     id="layer1">
    <rect
       y="164.70831"
       x="0"
       height="132.29167"
       width="132.29167"
       id="rect12"
       style="fill:#000080;stroke-width:0.26458332" />
  </g>
  <g
     id="layer3">
    <path
       id="rect273"
       d="M -5.2916667,10.583333 V -10.583333 L 137.58333,121.70833 V 142.875 Z"
       style="fill:#e6e6e6;stroke-width:0.26458332" />
    <path
       id="rect265"
       d="m 0,0 132.29167,121.70833 v 10.58334 L 0,10.583333 Z"
       style="fill:#d40000;stroke-width:0.26458332" />
    <path
       style="fill:#e6e6e6;stroke-width:0.26458332"
       d="M 137.58333,10.583333 V -10.583333 L -5.2916667,121.70833 V 142.875 Z"
       id="path276" />
    <path
       style="fill:#d40000;stroke-width:0.26458332"
       d="M 132.29167,0 0,121.70833 v 10.58334 L 132.29167,10.583333 Z"
       id="path268" />
    <rect
       y="52.916664"
       x="0"
       height="26.458332"
       width="132.29167"
       id="rect278"
       style="fill:#e6e6e6;stroke-width:0.26458332" />
    <rect
       y="58.208332"
       x="0"
       height="15.875"
       width="132.29167"
       id="rect263"
       style="fill:#d40000;stroke-width:0.26458332" />
    <rect
       y="0"
       x="52.916664"
       height="132.29167"
       width="26.458332"
       id="rect280"
       style="fill:#e6e6e6;stroke-width:0.26458332" />
    <rect
       y="0"
       x="58.208332"
       height="132.29167"
       width="15.875"
       id="rect261"
       style="fill:#d40000;stroke-width:0.26458332" />
  </g>
  <g
     id="layer2">
    <g
       transform="translate(2.1166667)"
       id="g436">
      <path
         style="fill:#de8787;stroke:#000000;stroke-width:0.23480003px;stroke-linecap:butt;stroke-linejoin:miter;stroke-opacity:1"
         d="m 117.03285,51.047422 c -0.76371,2.634018 -6.73157,1.990031 -3.90033,5.092859 2.21013,2.932036 2.564,8.841269 -0.57289,10.988045 -2.87838,1.343624 -6.24016,1.473466 -9.1537,0.311578 C 100.40482,66.50536 98.843514,63.1543 97.43119,60.024237 95.647633,56.37398 94.675285,51.907078 95.25,47.625 c 1.583642,-4.238048 4.61595,-7.688324 8.3993,-8.241533 3.21804,-0.59193 7.03671,-1.456565 9.90535,0.967983 2.12233,2.305167 2.8638,5.873347 4.06953,8.93397 0.76915,0.92002 -0.21675,4.174287 -0.59133,1.762002 z"
         id="path129" />
      <path
         style="fill:#c87137;stroke:#000000;stroke-width:0.23480003px;stroke-linecap:butt;stroke-linejoin:miter;stroke-opacity:1"
         d="m 96.143483,35.212272 c -0.950487,-4.695272 4.968537,-4.405859 7.207097,-6.096121 4.00564,-1.504782 8.46033,-3.482366 12.57629,-1.886572 3.59718,2.541759 4.26673,8.205459 3.95843,12.940295 -0.24839,4.378549 1.33599,9.126528 4.94717,10.341622 2.96985,0.949441 0.96387,8.417295 -2.06319,7.831864 -4.37437,0.389075 -7.37839,-4.764644 -7.84893,-9.77418 -0.379,-4.140516 -3.36345,-8.137388 -6.82828,-6.153095 -2.89093,1.690964 -5.72457,3.452958 -9.011597,2.773354 -3.134749,0.0071 -4.268428,-4.469939 -4.6469,-7.692548 -0.154493,-1.479693 0.204675,-3.340588 1.70991,-2.284619 z"
         id="path123" />
    </g>
    <g
       transform="translate(2.1166667)"
       id="g432">
      <path
         id="path135"
         d="m 11.345107,51.627024 c 0.763711,2.634017 6.731571,1.99003 3.90033,5.092859 -2.210126,2.932035 -2.563997,8.841268 0.572891,10.988045 2.878384,1.343623 6.240166,1.473465 9.153699,0.311577 3.001114,-0.934543 4.562421,-4.285604 5.974745,-7.415666 1.783557,-3.650258 2.755906,-8.117159 2.181191,-12.399237 -1.583643,-4.238049 -4.615951,-7.688324 -8.399305,-8.241534 -3.218035,-0.59193 -7.036705,-1.456564 -9.905345,0.967984 -2.122332,2.305167 -2.863801,5.873346 -4.06954,8.93397 -0.76915,0.92002 0.216755,4.174286 0.591334,1.762002 z"
         style="fill:#de8787;stroke:#000000;stroke-width:0.23480003px;stroke-linecap:butt;stroke-linejoin:miter;stroke-opacity:1" />
      <path
         id="path137"
         d="M 32.234479,35.791874 C 33.184966,31.096602 27.265937,31.386014 25.02738,29.695753 21.021737,28.19097 16.567053,26.213387 12.45109,27.80918 8.8539203,30.35094 8.1843524,36.014639 8.4926519,40.749476 8.7410427,45.128025 7.1566662,49.876004 3.545483,51.091098 c -2.969842,0.949441 -0.963862,8.417294 2.0631958,7.831864 4.374373,0.389074 7.3783922,-4.764645 7.8489302,-9.774181 0.379001,-4.140516 3.363449,-8.137388 6.828279,-6.153095 2.890929,1.690965 5.724571,3.452958 9.011602,2.773354 3.134748,0.0071 4.268427,-4.469939 4.646899,-7.692547 0.154493,-1.479694 -0.204675,-3.340588 -1.70991,-2.284619 z"
         style="fill:#c87137;stroke:#000000;stroke-width:0.23480003px;stroke-linecap:butt;stroke-linejoin:miter;stroke-opacity:1" />
    </g>
    <g
       transform="translate(2.1166667)"
       id="g286">
      <path
         style="fill:#deaa87;stroke:#000000;stroke-width:0.23480003px;stroke-linecap:butt;stroke-linejoin:miter;stroke-opacity:1"
         d="m 66.898362,24.655505 c -6.960499,2.124517 -14.197034,1.282027 -21.287081,1.321166 -5.176102,-0.410068 -11.082935,-0.05298 -14.829217,5.151064 -3.895994,4.833912 -4.587214,11.934809 -6.024991,18.262148 -1.655863,9.193216 -0.122315,18.577734 0.02331,27.84301 -0.689535,4.228865 0.605288,8.667336 3.290675,11.345203 6.783352,6.744546 15.648555,8.350156 23.585617,11.940784 8.245211,3.33853 17.714142,5.22067 25.752449,0.006 8.379587,-4.457268 16.442426,-9.870018 24.972216,-13.858557 4.09441,-3.133028 3.57292,-10.078326 2.66813,-15.161491 C 103.6577,61.62873 104.56545,51.532678 103.86302,41.583942 104.18915,36.337912 101.5516,31.532404 97.628025,29.85201 92.211881,27.170109 86.403369,26.150121 80.781293,24.366987 76.21623,23.48563 71.449458,23.793149 66.898362,24.655505 Z"
         id="path77" />
      <path
         style="fill:#c87137;stroke:#000000;stroke-width:0.23480003px;stroke-linecap:butt;stroke-linejoin:miter;stroke-opacity:1"
         d="m 68.297123,24.41143 c -9.604658,3.03253 -19.711717,0.785062 -29.508613,1.803741 -8.426404,1.279799 -11.657265,10.38863 -12.924904,17.707061 -2.098685,8.345996 -2.193593,16.972978 -1.419178,25.5044 0.975833,6.022238 -1.46129,12.938588 2.779241,18.077217 6.867587,7.951233 17.752015,9.849332 26.958995,13.930801 8.173877,3.37447 18.138385,3.30791 25.437468,-2.118425 C 86.911562,95.256977 93.98628,90.805121 101.43944,87.039539 94.989003,85.238673 89.773944,80.749403 84.391126,76.986728 80.006721,73.036047 77.436529,67.581415 74.243266,62.747301 70.487069,57.324624 68.786038,50.98599 67.17254,44.695403 65.269189,38.936878 65.723325,32.511608 67.12403,26.698593 c 0.234711,-0.826987 0.583531,-1.645955 1.173091,-2.287163 z"
         id="path251" />
    </g>
    <path
       id="path216"
       d="m 56.128157,57.478447 a 5.2916665,5.2916665 0 0 1 -5.291666,5.291666 5.2916665,5.2916665 0 0 1 -5.291667,-5.291666 5.2916665,5.2916665 0 0 1 5.291667,-5.291667 5.2916665,5.2916665 0 0 1 5.291666,5.291667 z"
       style="fill:#000000;stroke-width:0.26458332" />
    <path
       id="circle218"
       d="m 86.600863,57.660919 a 5.2916665,5.2916665 0 0 1 -5.291667,5.291667 5.2916665,5.2916665 0 0 1 -5.291666,-5.291667 5.2916665,5.2916665 0 0 1 5.291666,-5.291666 5.2916665,5.2916665 0 0 1 5.291667,5.291666 z"
       style="fill:#000000;stroke-width:0.26458332" />
    <path
       id="path145"
       d="m 56.481404,87.996106 c 1.730725,0.226987 0.940978,3.689496 2.881722,4.047436 2.779115,1.76369 5.98994,1.40711 8.960074,2.25824 3.676447,0.73017 7.997426,0.42245 10.771465,-3.09899 1.425047,-1.893539 2.54455,-4.861355 1.377402,-7.356136 -1.225459,-2.899238 -3.528598,-4.837598 -5.858275,-6.124921 -3.357082,-1.630118 -7.018408,-1.267764 -10.539024,-1.180429 -3.514722,0.786296 -6.326468,3.965967 -8.547406,7.303397 -0.455233,1.495572 -1.113999,3.684672 -0.09414,4.979794 0.511499,0.272294 0.77087,-0.44954 1.048178,-0.828391 z"
       style="fill:#ac9393;stroke:#000000;stroke-width:0.23480003px;stroke-linecap:butt;stroke-linejoin:miter;stroke-opacity:1" />
    <path
       id="path220"
       d="m 65.616666,63.499999 c -10.930464,3.896157 -22.378309,9.122779 -29.086468,19.035076 -3.839684,8.037725 -4.025993,18.186685 0.184778,26.131965 3.936724,6.41176 14.934505,4.26655 17.004292,-2.74519 2.692145,-6.860394 3.964775,-15.196304 10.827776,-19.340229 5.215381,-4.252677 12.989965,-1.241923 14.177928,5.325595 2.382956,5.899884 3.463388,13.307914 9.150698,17.060874 5.166536,2.29623 15.37968,2.84948 15.3929,-5.06493 C 104.33407,95.679841 99.1932,88.387752 95.424557,81.523653 92.049967,75.228082 85.156649,72.760271 79.918282,68.440471 75.819379,64.756413 70.838378,64.119047 65.616666,63.499999 Z"
       style="fill:#c87137;stroke:#000000;stroke-width:0.26458332px;stroke-linecap:butt;stroke-linejoin:miter;stroke-opacity:1" />
    <path
       id="path245"
       d="m 68.627444,62.405172 c -2.658615,0.595008 -5.775053,-0.522986 -8.120862,1.233351 -1.152615,0.923101 -1.17214,2.602144 -1.173135,3.960877 0.437612,1.593953 2.323595,2.086528 3.75598,2.386103 1.328656,0.278271 2.501372,1.174123 3.972048,1.458926 1.600071,0.829896 3.418757,-0.835903 4.960138,-1.400466 1.299661,-0.767864 3.386248,-1.057655 3.556872,-2.903108 0.315657,-1.478149 -0.834687,-2.630149 -1.851027,-3.498177 -1.514975,-0.97503 -3.558981,-0.348275 -5.100014,-1.237506 z"
       style="fill:#000000;stroke:#000000;stroke-width:0.26458332px;stroke-linecap:butt;stroke-linejoin:miter;stroke-opacity:1" />
    <path
       d="m 48.363383,57.266665 c 0.417361,0.450231 0.902525,0.816229 1.390277,1.184161 0.238146,0.160917 0.411125,0.421135 0.66226,0.563105 0.113366,0.06408 0.23686,0.108582 0.352337,0.168783 0.25653,0.0966 0.1299,0.04175 0.379622,0.165182 0,0 -2.257703,1.491728 -2.257703,1.491728 v 0 c -0.247539,-0.113138 -0.119211,-0.05533 -0.385117,-0.173109 -0.397452,-0.206639 -0.704998,-0.469564 -1.029978,-0.776422 -0.495517,-0.378838 -0.967695,-0.779822 -1.421371,-1.208058 0,0 2.309673,-1.41537 2.309673,-1.41537 z"
       id="path659"
       style="fill:#f9f9f9;stroke-width:0.26458332" />
    <path
       style="fill:#f9f9f9;stroke-width:0.26458332"
       id="path669"
       d="m 79.086794,57.350618 c 0.417361,0.450231 0.902525,0.816229 1.390277,1.184161 0.238146,0.160917 0.411125,0.421135 0.66226,0.563105 0.113366,0.06408 0.23686,0.108582 0.352337,0.168783 0.25653,0.0966 0.1299,0.04175 0.379622,0.165182 0,0 -2.257703,1.491728 -2.257703,1.491728 v 0 c -0.247539,-0.113138 -0.119211,-0.05533 -0.385117,-0.173109 -0.397452,-0.206639 -0.704998,-0.469564 -1.029978,-0.776422 -0.495517,-0.378838 -0.967695,-0.779822 -1.421371,-1.208058 0,0 2.309673,-1.41537 2.309673,-1.41537 z" />
    <path
       d="m 61.422703,65.951231 c 0.30181,0.320924 0.573749,0.670481 0.87916,0.987616 0.302482,0.339622 0.668128,0.604957 1.011515,0.898197 0.261673,0.196125 0.549137,0.344088 0.859007,0.446161 0.04924,0.01215 0.09848,0.02432 0.147725,0.03646 0,0 -1.57661,1.08077 -1.57661,1.08077 v 0 c -0.0515,-0.01614 -0.103,-0.0323 -0.154498,-0.04845 -0.321728,-0.125338 -0.626317,-0.285792 -0.894863,-0.505394 -0.346139,-0.297309 -0.699691,-0.584152 -1.012087,-0.919001 -0.306419,-0.316439 -0.573921,-0.66948 -0.892535,-0.975542 0,0 1.633186,-1.000819 1.633186,-1.000819 z"
       id="path681"
       style="fill:#f9f9f9;stroke-width:0.26458332" />
  </g>
</svg>
