<?xml version="1.0" encoding="UTF-8" standalone="no"?>
<svg
   xmlns:dc="http://purl.org/dc/elements/1.1/"
   xmlns:cc="http://creativecommons.org/ns#"
   xmlns:rdf="http://www.w3.org/1999/02/22-rdf-syntax-ns#"
   xmlns:svg="http://www.w3.org/2000/svg"
   xmlns="http://www.w3.org/2000/svg"
   xmlns:xlink="http://www.w3.org/1999/xlink"
   id="svg8"
   version="1.1"
   viewBox="0 0 132.29167 132.29167"
   height="500"
   width="500">
  <defs
     id="defs2" />
  <metadata
     id="metadata5">
    <rdf:RDF>
      <cc:Work
         rdf:about="">
        <dc:format>image/svg+xml</dc:format>
        <dc:type
           rdf:resource="http://purl.org/dc/dcmitype/StillImage" />
        <dc:title></dc:title>
      </cc:Work>
    </rdf:RDF>
  </metadata>
  <g
     transform="translate(0,-164.70832)"
     id="layer1">
    <rect
       y="164.70831"
       x="0"
       height="132.29167"
       width="132.29167"
       id="rect12"
       style="fill:#f2f2f2;stroke-width:0.26458332" />
    <g
       style="fill:#d40000"
       transform="matrix(2.0833333,0,0,1.1363637,0,19.632565)"
       id="g264">
      <rect
         style="fill:#d40000;stroke-width:0.26458332"
         id="rect244"
         width="63.5"
         height="10.583333"
         x="0"
         y="127.66666" />
      <use
         style="fill:#d40000"
         height="100%"
         width="100%"
         x="0"
         y="0"
         xlink:href="#rect244"
         transform="translate(0,21.166667)"
         id="use248" />
      <use
         style="fill:#d40000"
         height="100%"
         width="100%"
         x="0"
         y="0"
         xlink:href="#rect244"
         transform="translate(0,42.333333)"
         id="use250" />
      <use
         style="fill:#d40000"
         height="100%"
         width="100%"
         x="0"
         y="0"
         xlink:href="#rect244"
         transform="translate(0,63.5)"
         id="use252" />
      <use
         style="fill:#d40000"
         height="100%"
         width="100%"
         x="0"
         y="0"
         xlink:href="#rect244"
         transform="translate(0,84.666666)"
         id="use254" />
      <use
         style="fill:#d40000"
         height="100%"
         width="100%"
         x="0"
         y="0"
         xlink:href="#rect244"
         transform="translate(0,105.83333)"
         id="use256" />
    </g>
    <rect
       y="164.70831"
       x="0"
       height="66.145836"
       width="66.145836"
       id="rect240"
       style="fill:#0000ff;stroke-width:0.26458332" />
    <path
       transform="matrix(0.55392275,0,0,0.58242882,-5.9994854,170.18498)"
       d="m 21.166666,5.2916665 1.30406,3.4967816 3.728614,0.1596702 -2.92266,2.3207997 1.000349,3.595463 -3.110363,-2.062448 -3.110364,2.062448 1.00035,-3.595463 -2.92266,-2.3208 3.728614,-0.1596699 z"
       id="path290"
       style="fill:#f2f2f2;stroke-width:0.26458332" />
    <use
       height="100%"
       width="100%"
       id="use354"
       transform="translate(0,11.15085)"
       xlink:href="#path290"
       y="0"
       x="0" />
    <use
       height="100%"
       width="100%"
       id="use356"
       transform="translate(0,22.3017)"
       xlink:href="#path290"
       y="0"
       x="0" />
    <use
       height="100%"
       width="100%"
       id="use358"
       transform="translate(0,33.45255)"
       xlink:href="#path290"
       y="0"
       x="0" />
    <use
       height="100%"
       width="100%"
       id="use360"
       transform="translate(0,44.6034)"
       xlink:href="#path290"
       y="0"
       x="0" />
    <use
       height="100%"
       width="100%"
       id="use362"
       transform="translate(11.15085)"
       xlink:href="#path290"
       y="0"
       x="0" />
    <use
       height="100%"
       width="100%"
       id="use364"
       transform="translate(11.15085,11.15085)"
       xlink:href="#path290"
       y="0"
       x="0" />
    <use
       height="100%"
       width="100%"
       id="use366"
       transform="translate(11.15085,22.3017)"
       xlink:href="#path290"
       y="0"
       x="0" />
    <use
       height="100%"
       width="100%"
       id="use368"
       transform="translate(11.15085,33.45255)"
       xlink:href="#path290"
       y="0"
       x="0" />
    <use
       height="100%"
       width="100%"
       id="use370"
       transform="translate(11.15085,44.6034)"
       xlink:href="#path290"
       y="0"
       x="0" />
    <use
       height="100%"
       width="100%"
       id="use372"
       transform="translate(22.301701)"
       xlink:href="#path290"
       y="0"
       x="0" />
    <use
       height="100%"
       width="100%"
       id="use374"
       transform="translate(22.301701,11.15085)"
       xlink:href="#path290"
       y="0"
       x="0" />
    <use
       height="100%"
       width="100%"
       id="use376"
       transform="translate(22.301701,22.3017)"
       xlink:href="#path290"
       y="0"
       x="0" />
    <use
       height="100%"
       width="100%"
       id="use378"
       transform="translate(22.301701,33.45255)"
       xlink:href="#path290"
       y="0"
       x="0" />
    <use
       height="100%"
       width="100%"
       id="use380"
       transform="translate(22.301701,44.6034)"
       xlink:href="#path290"
       y="0"
       x="0" />
    <use
       height="100%"
       width="100%"
       id="use382"
       transform="translate(33.452552)"
       xlink:href="#path290"
       y="0"
       x="0" />
    <use
       height="100%"
       width="100%"
       id="use384"
       transform="translate(33.452552,11.15085)"
       xlink:href="#path290"
       y="0"
       x="0" />
    <use
       height="100%"
       width="100%"
       id="use386"
       transform="translate(33.452552,22.3017)"
       xlink:href="#path290"
       y="0"
       x="0" />
    <use
       height="100%"
       width="100%"
       id="use388"
       transform="translate(33.452552,33.45255)"
       xlink:href="#path290"
       y="0"
       x="0" />
    <use
       height="100%"
       width="100%"
       id="use390"
       transform="translate(33.452552,44.6034)"
       xlink:href="#path290"
       y="0"
       x="0" />
    <use
       height="100%"
       width="100%"
       id="use392"
       transform="translate(44.603403)"
       xlink:href="#path290"
       y="0"
       x="0" />
    <use
       height="100%"
       width="100%"
       id="use394"
       transform="translate(44.603403,11.15085)"
       xlink:href="#path290"
       y="0"
       x="0" />
    <use
       height="100%"
       width="100%"
       id="use396"
       transform="translate(44.603403,22.3017)"
       xlink:href="#path290"
       y="0"
       x="0" />
    <use
       height="100%"
       width="100%"
       id="use398"
       transform="translate(44.603403,33.45255)"
       xlink:href="#path290"
       y="0"
       x="0" />
    <use
       height="100%"
       width="100%"
       id="use400"
       transform="translate(44.603403,44.6034)"
       xlink:href="#path290"
       y="0"
       x="0" />
    <use
       height="100%"
       width="100%"
       id="use402"
       transform="translate(55.754252)"
       xlink:href="#path290"
       y="0"
       x="0" />
    <use
       height="100%"
       width="100%"
       id="use404"
       transform="translate(55.754252,11.15085)"
       xlink:href="#path290"
       y="0"
       x="0" />
    <use
       height="100%"
       width="100%"
       id="use406"
       transform="translate(55.754252,22.3017)"
       xlink:href="#path290"
       y="0"
       x="0" />
    <use
       height="100%"
       width="100%"
       id="use408"
       transform="translate(55.754252,33.45255)"
       xlink:href="#path290"
       y="0"
       x="0" />
    <use
       height="100%"
       width="100%"
       id="use410"
       transform="translate(55.754252,44.6034)"
       xlink:href="#path290"
       y="0"
       x="0" />
    <path
       style="fill:#f2f2f2;stroke-width:0.26458332"
       id="path421"
       d="m 21.166666,5.2916665 1.30406,3.4967816 3.728614,0.1596702 -2.92266,2.3207997 1.000349,3.595463 -3.110363,-2.062448 -3.110364,2.062448 1.00035,-3.595463 -2.92266,-2.3208 3.728614,-0.1596699 z"
       transform="matrix(0.55392275,0,0,0.58242882,-0.17865176,176.53498)" />
    <use
       x="0"
       y="0"
       xlink:href="#path290"
       transform="translate(5.8208336,17.50085)"
       id="use423"
       width="100%"
       height="100%" />
    <use
       x="0"
       y="0"
       xlink:href="#path290"
       transform="translate(5.8208336,28.6517)"
       id="use425"
       width="100%"
       height="100%" />
    <use
       x="0"
       y="0"
       xlink:href="#path290"
       transform="translate(5.8208336,39.80256)"
       id="use427"
       width="100%"
       height="100%" />
    <use
       x="0"
       y="0"
       xlink:href="#path290"
       transform="translate(16.971687,6.35)"
       id="use431"
       width="100%"
       height="100%" />
    <use
       x="0"
       y="0"
       xlink:href="#path290"
       transform="translate(16.971687,17.50085)"
       id="use433"
       width="100%"
       height="100%" />
    <use
       x="0"
       y="0"
       xlink:href="#path290"
       transform="translate(16.971687,28.6517)"
       id="use435"
       width="100%"
       height="100%" />
    <use
       x="0"
       y="0"
       xlink:href="#path290"
       transform="translate(16.971687,39.80256)"
       id="use437"
       width="100%"
       height="100%" />
    <use
       x="0"
       y="0"
       xlink:href="#path290"
       transform="translate(28.122538,6.35)"
       id="use441"
       width="100%"
       height="100%" />
    <use
       x="0"
       y="0"
       xlink:href="#path290"
       transform="translate(28.122538,17.50085)"
       id="use443"
       width="100%"
       height="100%" />
    <use
       x="0"
       y="0"
       xlink:href="#path290"
       transform="translate(28.122538,28.6517)"
       id="use445"
       width="100%"
       height="100%" />
    <use
       x="0"
       y="0"
       xlink:href="#path290"
       transform="translate(28.122538,39.80256)"
       id="use447"
       width="100%"
       height="100%" />
    <use
       x="0"
       y="0"
       xlink:href="#path290"
       transform="translate(39.273389,6.35)"
       id="use451"
       width="100%"
       height="100%" />
    <use
       x="0"
       y="0"
       xlink:href="#path290"
       transform="translate(39.273389,17.50085)"
       id="use453"
       width="100%"
       height="100%" />
    <use
       x="0"
       y="0"
       xlink:href="#path290"
       transform="translate(39.273389,28.6517)"
       id="use455"
       width="100%"
       height="100%" />
    <use
       x="0"
       y="0"
       xlink:href="#path290"
       transform="translate(39.273389,39.80256)"
       id="use457"
       width="100%"
       height="100%" />
    <use
       x="0"
       y="0"
       xlink:href="#path290"
       transform="translate(50.42424,6.35)"
       id="use461"
       width="100%"
       height="100%" />
    <use
       x="0"
       y="0"
       xlink:href="#path290"
       transform="translate(50.42424,17.50085)"
       id="use463"
       width="100%"
       height="100%" />
    <use
       x="0"
       y="0"
       xlink:href="#path290"
       transform="translate(50.42424,28.6517)"
       id="use465"
       width="100%"
       height="100%" />
    <use
       x="0"
       y="0"
       xlink:href="#path290"
       transform="translate(50.42424,39.80256)"
       id="use467"
       width="100%"
       height="100%" />
  </g>
  <g
     style="display:inline"
     id="layer2">
    <path
       transform="scale(0.26458333)"
       id="path26"
       d="m 367.91211,84.255859 c -32.67306,0.176237 -66.85142,10.368454 -99.53906,19.330081 -4.54686,1.08796 -9.98435,1.83074 -15.93164,2.44531 -1.61308,28.27798 27.57493,63.40421 62.94531,59.47266 19.82098,2.17897 53.95702,5.57065 13.77539,8.7207 -19.4891,1.9566 -38.5016,7.65 -51.42578,18.99805 22.15412,16.20659 32.25744,44.12069 13.65234,65.63476 -31.75114,38.02296 -48.45342,84.90779 -60.1875,132.38281 C 221.36256,443.16202 156.73131,452.38876 140,500 c -4.3262,24.22568 27.86957,27.27772 43.16797,35.64453 73.09943,0.0669 146.19939,-0.0872 219.29883,0.0137 47.85358,3.64668 99.84857,-2.09582 136.02148,-37.1289 36.57226,-38.33326 -29.31314,-58.29171 -41.9414,-87.29492 -25.18353,-43.8155 -23.40753,-94.77732 -25.3086,-143.51172 C 473.67434,212.61888 467.92675,132.4302 422.0293,95.931641 405.82614,87.824788 388.68073,84.53 371.06836,84.269531 c -1.05074,-0.01554 -2.10228,-0.01936 -3.15625,-0.01367 z"
       style="fill:#ececec;stroke:#000000;stroke-width:0.99999994px;stroke-linecap:butt;stroke-linejoin:miter;stroke-opacity:1" />
    <path
       id="path31"
       d="m 126.40055,259.44982 c -1.20712,0.1236 0.63318,0.96265 0,0 z m 0.43098,2.09135 c -2.00985,4.88736 4.21079,10.25561 3.02864,13.56586 -3.0347,-1.42214 -2.88019,-0.60488 -1.3223,1.35031 -2.60592,1.1849 -9.66893,-2.89453 -4.24265,0.73442 3.19012,3.67527 -11.42616,-3.5252 -3.66047,0.91359 4.36845,2.75688 -4.76845,-0.34886 -5.43462,-2.61393 -2.41493,-2.11042 -5.20732,-6.68 -4.38932,-0.59506 0.0534,2.84397 -0.69605,6.06088 2.25065,7.85075 -2.86339,1.12395 -9.14244,-4.92023 -11.27628,-8.60951 -3.431138,-0.5025 3.16979,8.92736 1.69067,10.02596 -3.530632,-1.59668 -8.661079,-8.0911 -10.692461,-8.0547 1.186349,1.52683 5.684009,8.31979 1.235603,4.07459 -5.015464,-2.384 -7.144106,-8.47606 -11.993062,-10.80845 1.465504,6.07563 -7.479238,-3.84775 -5.8944,3.2539 -0.421266,3.11718 0.8944,14.1991 -2.781485,6.0337 -2.01802,-1.5825 -4.432854,-10.13442 -5.492041,-3.35574 -0.411175,3.33131 -1.904767,7.2308 -2.438459,9.89395 -0.705338,-3.56433 -1.441589,-10.67344 -5.453645,-4.48494 -2.52172,1.67646 -2.2384,10.47633 -3.743267,3.77535 -0.671651,-3.15144 0.249992,-8.78781 -3.709605,-3.54678 -5.918568,4.89096 -14.156387,9.1794 -15.569103,17.43629 1.480426,5.83658 8.900693,7.21791 14.053315,8.08015 22.097952,-0.0704 44.214729,-0.0518 66.30886,0.0888 10.19606,-0.66984 21.34783,-4.10374 27.40844,-12.87348 2.50341,-6.01867 -3.70175,-10.50022 -7.74789,-13.78551 -5.86163,-4.40257 -8.48879,-11.46665 -10.13512,-18.34955 z m -9.20977,14.50196 c -0.32769,-1.26442 -2.16927,-1.37083 0,0 z m 8.38295,-3.66748 c -0.2827,0.97375 0.90238,0.24747 0,0 z m 0.52038,0.78031 c -0.23558,1.6604 1.24398,0.25 0,0 z m 0.47904,0.80719 -0.11534,0.0173 z"
       style="fill:#552200;stroke:#000000;stroke-width:0.26458332px;stroke-linecap:butt;stroke-linejoin:miter;stroke-opacity:1"
       transform="translate(0,-164.70832)" />
    <path
       transform="scale(0.26458333)"
       id="path47"
       d="m 252.44141,106.03125 c -28.57587,2.9529 -64.80866,18.7067 -85.46094,36.90039 C 145.00027,154.02074 136.81547,243.64978 153,222 c 5,-43 47,-42 87,-42 14.10166,0.51356 27.26372,5.56154 37.73633,13.22266 12.92418,-11.34805 31.93668,-17.04145 51.42578,-18.99805 40.18163,-3.15005 6.04559,-6.54173 -13.77539,-8.7207 -35.37038,3.93155 -64.55839,-31.19468 -62.94531,-59.47266 z"
       style="fill:#ffd42a;stroke:#000000;stroke-width:0.99999994px;stroke-linecap:butt;stroke-linejoin:miter;stroke-opacity:1" />
    <path
       id="path69"
       d="m 95.34954,199.53377 c -2e-6,2.45953 -2.169776,4.45338 -4.846328,4.45338 -2.676552,0 -4.846326,-1.99385 -4.846328,-4.45338 -4e-6,-2.45954 3.308161,-1.93521 6.227687,-2.96577 2.796506,-0.98714 3.464973,0.50623 3.464969,2.96577 z"
       style="fill:#000000;stroke-width:0.26458332"
       transform="translate(0,-164.70832)" />
    <path
       id="path210"
       d="m 43.017918,217.13653 c 0.607663,-1.2538 1.591359,-2.28696 2.899078,-2.79888 2.224088,-1.16752 4.728008,-1.60219 7.092148,-2.38679 2.096246,-0.4538 4.260151,-0.44062 6.363363,-0.8566 2.407658,-0.19021 4.825428,0.0126 7.237684,-0.0608 3.422326,-4e-5 6.844652,-0.009 10.266977,-0.003"
       style="fill:none;stroke:#000000;stroke-width:0.26458332px;stroke-linecap:butt;stroke-linejoin:miter;stroke-opacity:1"
       transform="translate(0,-164.70832)" />
  </g>
</svg>
