<?xml version="1.0" encoding="UTF-8" standalone="no"?>
<svg
   xmlns:dc="http://purl.org/dc/elements/1.1/"
   xmlns:cc="http://creativecommons.org/ns#"
   xmlns:rdf="http://www.w3.org/1999/02/22-rdf-syntax-ns#"
   xmlns:svg="http://www.w3.org/2000/svg"
   xmlns="http://www.w3.org/2000/svg"
   id="svg8"
   version="1.1"
   viewBox="0 0 132.29167 132.29168"
   height="132.29167mm"
   width="132.29167mm">
  <defs
     id="defs2" />
  <metadata
     id="metadata5">
    <rdf:RDF>
      <cc:Work
         rdf:about="">
        <dc:format>image/svg+xml</dc:format>
        <dc:type
           rdf:resource="http://purl.org/dc/dcmitype/StillImage" />
        <dc:title></dc:title>
      </cc:Work>
    </rdf:RDF>
  </metadata>
  <g
     transform="translate(-43.627178,-77.381294)"
     id="layer1">
    <rect
       y="77.381294"
       x="43.627178"
       height="132.29167"
       width="132.29167"
       id="rect3713"
       style="fill:#ff0000;stroke-width:0.19873784" />
    <path
       id="path3728"
       d="m 59.691552,136.76594 101.356488,-0.52435 c 0,0 -0.42217,-11.89126 -10e-6,-18.3525 1.62714,-24.903403 -98.634808,-23.082365 -99.995987,-2.09743 z"
       style="fill:#0000ff;stroke:#000000;stroke-width:0.20903265px;stroke-linecap:butt;stroke-linejoin:miter;stroke-opacity:1" />
    <path
       id="path3730"
       d="m 62.700434,140.47424 99.029766,1e-5 -0.18899,39.87648 H 137.16174 V 163.34181 H 98.041206 L 97.66323,180.16175 H 73.472755 l 0.377976,-23.62352 c 0,0 -2.625182,0.31039 -4.724702,4.53571 l -3.779763,13.98512 c -1.872675,6.9289 -13.040177,4.53618 -13.040177,-0.18898 v -7.55953 h 4.91369 v 3.40179 h 2.645834 l 0.188988,-30.04911 z"
       style="fill:#d40000;stroke:#000000;stroke-width:0.26458332px;stroke-linecap:butt;stroke-linejoin:miter;stroke-opacity:1" />
    <path
       transform="scale(0.26458333)"
       id="path3736"
       d="M 519.01166,648.8315 V 616.42904 H 444.6068 370.20194 l -0.34621,2.95984 c -0.19041,1.62792 -0.50465,13.89567 -0.69831,27.26168 -0.19366,13.36602 -0.51773,26.33479 -0.72017,28.81949 l -0.36805,4.51765 h -44.88317 -44.88317 l 0.39845,-20.09575 c 1.21733,-61.39634 1.25147,-69.01099 0.3094,-69.01099 -3.88709,0 -13.43807,8.32434 -16.82231,14.66181 -0.99454,1.86243 -4.56428,13.90376 -8.95392,30.20312 -4.015,14.90825 -7.85633,28.29364 -8.5363,29.74534 -4.06931,8.68767 -14.95352,13.22943 -26.80341,11.18451 -8.53945,-1.47365 -15.40796,-5.46756 -17.94074,-10.43222 -1.12337,-2.20198 -1.22816,-3.71215 -1.22816,-17.69876 V 633.2534 h 8.41217 8.41218 v 6.23124 6.23124 h 5.50978 5.50978 l 0.4099,-11.31613 c 0.22544,-6.22387 0.40989,-31.70085 0.40989,-56.61552 v -45.2994 l 3.83016,-0.40033 c 2.10658,-0.22019 88.37734,-0.40033 191.71281,-0.40033 h 187.88265 l -0.41371,37.49013 c -0.22753,20.61958 -0.4137,54.26828 -0.4137,74.7749 v 37.28475 h -45.48806 -45.48806 z"
       style="fill:#d40000;stroke-width:0.62312412" />
    <path
       transform="scale(0.26458333)"
       id="path3738"
       d="M 519.01166,648.8315 V 616.42904 H 444.61448 370.2173 l -0.36547,5.45234 c -0.20101,2.99879 -0.5192,15.68715 -0.70708,28.19637 -0.18788,12.50921 -0.50133,24.35636 -0.69655,26.32699 l -0.35494,3.58296 H 323.2895 278.48575 l -10e-4,-6.07546 c -6.2e-4,-3.3415 0.30786,-23.13789 0.68603,-43.99197 0.44341,-24.45214 0.4733,-38.1308 0.0842,-38.51994 -1.70867,-1.70867 -11.3304,5.52339 -15.29498,11.4963 -2.71721,4.09363 -3.76056,7.35901 -11.69058,36.58801 -3.48682,12.85193 -6.92407,24.61714 -7.63833,26.14492 -2.77168,5.92845 -8.65248,9.87342 -16.81006,11.27655 -10.66111,1.83369 -24.61928,-3.5648 -28.08142,-10.86071 -0.85051,-1.79233 -1.01345,-4.60016 -1.01345,-17.46386 V 633.2534 h 8.41217 8.41218 v 6.23124 6.23124 h 5.50799 5.508 l 0.41168,-16.92559 c 0.22643,-9.30907 0.41168,-34.78695 0.41168,-56.6175 v -39.69191 l 3.27141,-0.39294 c 1.79927,-0.21612 88.07016,-0.39538 191.7131,-0.39836 l 188.4417,-0.005 -0.41353,45.33227 c -0.22744,24.93276 -0.41375,58.58146 -0.41401,74.7749 l -4.6e-4,29.44261 h -45.48806 -45.48806 z"
       style="fill:#d40000;stroke-width:0.62312412" />
    <path
       transform="scale(0.26458333)"
       id="path3740"
       d="M 519.01166,648.8315 V 616.42904 H 444.62348 370.2353 l -0.37911,8.2564 c -0.20851,4.54102 -0.53568,17.79019 -0.72703,29.44261 -0.19135,11.65242 -0.49983,22.23774 -0.6855,23.52294 l -0.33758,2.33671 h -44.81017 -44.81016 l 0.002,-8.25639 c 10e-4,-4.54102 0.29307,-24.17431 0.64802,-43.62954 0.35496,-19.45522 0.41187,-35.79038 0.12648,-36.30035 -0.44319,-0.79194 -0.96954,-0.70064 -3.60785,0.62586 -7.24422,3.64225 -12.94337,10.70265 -15.53702,19.24805 -0.84556,2.7859 -4.50369,15.85848 -8.12917,29.05018 -7.12984,25.9432 -8.03533,28.16613 -12.94323,31.77544 -4.45493,3.2762 -8.74806,4.56376 -15.39464,4.61705 -9.69591,0.0777 -17.96958,-3.269 -22.69915,-9.18193 l -1.91425,-2.39321 -0.18529,-16.14474 -0.18529,-16.14472 h 8.44168 8.44169 v 6.23124 6.23124 h 5.50703 5.50704 l 0.41172,-22.89981 c 0.22645,-12.5949 0.41214,-38.07514 0.41264,-56.62277 l 9.2e-4,-33.72295 2.33672,-0.38623 c 1.28519,-0.21243 87.55618,-0.38932 191.7133,-0.3931 l 189.37658,-0.007 -0.41379,52.80976 c -0.22759,29.04538 -0.41398,62.69408 -0.4142,74.7749 l -4e-4,21.96512 h -45.48806 -45.48806 z"
       style="fill:#d40000;stroke-width:0.62312412" />
    <path
       transform="scale(0.26458333)"
       id="path3742"
       d="m 519.01166,648.8315 v -32.40246 h -74.38371 -74.38369 l -0.38511,10.43733 c -0.21181,5.74053 -0.54471,19.27012 -0.73977,30.06574 -0.19507,10.79563 -0.50049,20.39953 -0.67872,21.342 l -0.32406,1.71359 h -44.81543 -44.81542 l 0.0269,-12.3067 c 0.0148,-6.76868 0.26612,-25.92502 0.55857,-42.56963 0.29245,-16.64462 0.38788,-31.01542 0.21208,-31.93511 -0.41584,-2.17529 -1.68996,-2.13699 -5.31142,0.15968 -5.71564,3.62474 -10.89705,9.9832 -12.99177,15.94305 -0.64579,1.83738 -4.39258,14.99435 -8.3262,29.2377 -3.93362,14.24336 -7.47888,26.527 -7.87836,27.29699 -3.0931,5.96191 -9.53826,10.08097 -17.58854,11.24074 -5.49263,0.79129 -12.55082,-0.32933 -18.11296,-2.87575 -3.93569,-1.80182 -8.66986,-5.92644 -9.62153,-8.38269 -0.37596,-0.97037 -0.74413,-8.30648 -0.85919,-17.12026 l -0.20134,-15.42232 h 8.57913 8.57914 v 6.23124 6.23124 h 5.50649 5.5065 l 0.41244,-28.50793 c 0.22684,-15.67936 0.41277,-41.1596 0.41318,-56.62276 l 7.4e-4,-28.11484 2.33672,-0.38623 c 1.28519,-0.21243 87.50999,-0.38932 191.61066,-0.3931 l 189.27395,-0.007 v 22.32944 c 0,12.28119 -0.18639,45.92989 -0.41419,74.7749 l -0.41419,52.44544 H 564.39713 519.0117 Z"
       style="fill:#d40000;stroke-width:0.37795275;stroke-miterlimit:4;stroke-dasharray:none" />
    <path
       transform="scale(0.26458333)"
       id="path4549"
       d="m 518.68485,648.8315 v -32.40246 h -74.08853 -74.08853 l -0.35933,4.20609 c -0.19763,2.31335 -0.51012,12.75847 -0.69441,23.21138 -0.18429,10.4529 -0.50319,22.86086 -0.70866,27.57324 l -0.37357,8.56795 h -45.19313 -45.19311 l 0.39218,-15.11076 c 0.2157,-8.31091 0.57423,-28.07332 0.79673,-43.91645 0.46376,-33.02276 0.82511,-31.09015 -5.14197,-27.50156 -4.34163,2.61105 -8.69416,7.29505 -11.25652,12.1138 -1.32911,2.49953 -4.41496,12.53775 -9.56284,31.10785 -4.18027,15.0796 -8.10531,28.41148 -8.72231,29.6264 -1.27924,2.51893 -5.76986,6.86669 -8.60842,8.33456 -10.95316,5.66411 -30.0049,1.60577 -35.73679,-7.61252 -1.38344,-2.2249 -1.44202,-2.87342 -1.62969,-18.04174 l -0.19466,-15.73388 h 8.76262 8.76262 v 6.23124 6.23124 h 5.1987 5.1987 l 0.40942,-10.38107 c 0.22518,-5.70959 0.40942,-31.19147 0.40942,-56.6264 v -46.24534 l 1.94726,-0.38945 c 1.07099,-0.2142 87.4818,-0.38945 192.02401,-0.38945 H 611.1108 l -0.41336,30.94708 c -0.22734,17.02089 -0.41335,50.66959 -0.41335,74.77489 v 43.82781 h -45.79962 -45.79962 z"
       style="fill:#d40000;stroke-width:0.23551147;stroke-miterlimit:4;stroke-dasharray:none" />
    <path
       transform="scale(0.26458333)"
       id="path4551"
       d="M 518.68485,648.8315 V 616.42904 H 444.6003 370.51574 l -0.36908,6.07546 c -0.20299,3.34151 -0.51698,14.20723 -0.69775,24.14606 -0.18076,9.93883 -0.49377,21.50557 -0.69556,25.70387 l -0.3669,7.63327 h -45.12074 -45.12073 l 0.47433,-29.75417 c 0.61057,-38.30109 0.60179,-57.87608 -0.0262,-58.50352 -0.6884,-0.68775 -5.12928,1.76557 -8.64581,4.77629 -4.38116,3.75098 -7.70072,9.18734 -9.8223,16.08573 -1.01796,3.30987 -4.69765,16.25276 -8.1771,28.76198 -3.47946,12.50922 -6.84278,23.75701 -7.47405,24.99511 -1.66952,3.27438 -6.9628,7.7529 -11.05416,9.35267 -5.07633,1.98491 -14.9404,1.98367 -20.68874,-0.003 -5.38532,-1.86084 -10.18693,-5.09483 -12.29844,-8.28328 l -1.72185,-2.60004 -0.19467,-15.78124 -0.19466,-15.78123 h 8.76262 8.76262 v 6.23124 6.23124 h 5.19747 5.19746 l 0.41065,-13.18608 c 0.22586,-7.25234 0.41066,-32.73422 0.41066,-56.6264 v -43.44033 l 1.94726,-0.38945 c 1.07099,-0.2142 87.48194,-0.38945 192.02433,-0.38945 h 190.07706 l -0.41366,36.55542 c -0.22752,20.10548 -0.41367,53.75418 -0.41367,74.77489 v 38.21947 h -45.79962 -45.79962 z"
       style="fill:#d40000;stroke-width:0.23551147;stroke-miterlimit:4;stroke-dasharray:none" />
    <path
       transform="scale(0.26458333)"
       id="path4553"
       d="m 518.68485,648.8315 v -32.40246 h -74.07682 -74.07682 l -0.37735,7.63327 c -0.20754,4.1983 -0.52586,15.34444 -0.70738,24.76919 -0.18151,9.42475 -0.49371,20.29048 -0.69375,24.14606 l -0.36373,7.01014 h -45.16917 -45.16917 l 0.42281,-26.95011 c 0.69324,-44.18782 0.6863,-60.14807 -0.0265,-60.86647 -0.76727,-0.77333 -4.22243,0.92653 -7.95365,3.91304 -3.91655,3.13484 -9.73092,12.06062 -8.81834,13.53722 0.19594,0.31703 0.0976,0.57642 -0.21854,0.57642 -0.63276,0 -2.37732,5.78254 -10.43358,34.58339 -2.97185,10.62427 -5.9194,20.32983 -6.55011,21.56793 -1.66987,3.27799 -6.96494,7.75517 -11.05313,9.34584 -4.74685,1.84694 -14.20768,1.97936 -19.96362,0.27942 -5.17022,-1.52695 -10.82032,-5.23145 -13.00065,-8.52391 l -1.74475,-2.6347 -0.18576,-15.78119 -0.18575,-15.78118 h 8.75371 8.75371 v 6.23124 6.23124 h 5.19665 5.19665 l 0.41147,-15.99074 c 0.22631,-8.79491 0.41147,-34.27915 0.41147,-56.63162 v -40.64088 l 1.40203,-0.37573 c 0.77111,-0.20665 87.18216,-0.37956 192.02454,-0.38424 l 190.6225,-0.009 -0.41336,41.59353 c -0.22735,22.87644 -0.4136,56.52515 -0.41388,74.77489 l -5.1e-4,33.18136 h -45.79962 -45.79962 z"
       style="fill:#d40000;stroke-width:0.23551147;stroke-miterlimit:4;stroke-dasharray:none" />
    <path
       transform="scale(0.26458333)"
       id="path4555"
       d="m 518.68485,648.8315 v -32.40246 h -74.07628 -74.07628 l -0.38044,9.50265 c -0.20925,5.22645 -0.52818,16.65299 -0.70873,25.3923 -0.18056,8.73932 -0.49092,18.76383 -0.6897,22.27669 l -0.36141,6.38702 H 323.3003 278.20859 l 0.36749,-43.93025 c 0.36089,-43.14034 0.34583,-43.93025 -0.83751,-43.93025 -1.75701,0 -6.62773,3.26873 -9.79263,6.57181 -2.62727,2.74196 -6.80111,9.6058 -6.49302,10.67771 0.0805,0.28024 -0.16379,1.07033 -0.54296,1.75577 -0.67906,1.22753 -1.95816,5.60973 -10.82193,37.07588 -2.4618,8.73932 -4.98067,16.88369 -5.59749,18.09861 -1.39014,2.73807 -5.87514,6.93464 -9.25285,8.65783 -8.35944,4.26466 -22.80109,2.60137 -30.91,-3.56 -5.75561,-4.37328 -5.90657,-4.953 -5.91838,-22.72909 l -0.0103,-15.42232 h 8.72374 8.72373 v 6.23124 6.23124 h 5.196 5.19601 l 0.41102,-19.16107 c 0.22606,-10.53859 0.41151,-36.02281 0.41211,-56.63162 l 0.001,-37.47055 1.40203,-0.37573 c 0.77111,-0.20665 87.18222,-0.37956 192.02469,-0.38424 l 190.62267,-0.009 -0.41358,46.26696 c -0.22746,25.44683 -0.41377,59.09553 -0.41403,74.77489 l -4.6e-4,28.50793 H 564.48432 518.6847 Z"
       style="fill:#d40000;stroke:#000000;stroke-width:4.53543329;stroke-miterlimit:4;stroke-dasharray:none;stroke-opacity:1" />
    <path
       id="path4559"
       d="m 59.974601,135.92439 c 0.0034,-2.15877 1.358897,-22.4708 1.544473,-23.14339 0.940441,-3.4085 4.781426,-6.7117 10.728402,-9.2263 10.00991,-4.232571 25.934696,-6.600386 42.252004,-6.282346 19.96195,0.389078 35.40616,4.220936 42.25935,10.484946 1.80706,1.65171 2.72631,2.91962 3.43187,4.73357 l 0.5188,1.33377 0.0186,11.04708 0.0186,11.04707 -1.52254,0.0878 c -0.8374,0.0483 -19.63603,0.16665 -41.77474,0.26298 -22.138707,0.0963 -44.12754,0.22317 -48.864071,0.28184 l -8.61188,0.10669 0.0011,-0.73373 z"
       style="fill:#0000ff;fill-opacity:1;stroke-width:0.06736495;stroke-miterlimit:4;stroke-dasharray:none" />
    <path
       id="path4561"
       d="m 60.047637,134.14627 c 0.402164,-7.58468 1.283012,-20.17415 1.458557,-20.84633 0.816007,-3.12454 4.588238,-6.41763 10.04284,-8.76721 12.425101,-5.352132 34.559526,-7.712457 54.368156,-5.797594 10.59789,1.024472 19.32732,3.111704 25.3442,6.059854 4.62274,2.26504 7.79716,5.18679 9.01674,8.29903 0.41005,1.0464 0.41637,1.21689 0.4432,11.95597 l 0.0272,10.89442 -0.95252,0.0819 c -0.52389,0.045 -18.08112,0.15881 -39.01607,0.25281 -20.934945,0.094 -43.194034,0.21873 -49.464638,0.27715 l -11.401099,0.1062 z"
       style="fill:#0000ff;fill-opacity:1;stroke:#000000;stroke-width:1.20424485;stroke-miterlimit:4;stroke-dasharray:none;stroke-opacity:1" />
    <path
       d="m 116.59113,129.81822 -8.00955,-4.01358 -7.84702,4.32271 1.34206,-8.85779 -6.536011,-6.12718 8.838981,-1.46083 3.80755,-8.10951 4.12074,7.95494 8.8892,1.11522 -6.29223,6.37727 z"
       id="path4572"
       style="fill:#0000ff;fill-opacity:1;stroke:#000000;stroke-width:1.29999995;stroke-miterlimit:4;stroke-dasharray:none;stroke-opacity:1" />
    <path
       transform="scale(0.26458333)"
       id="path4589"
       d="m 385.00054,484.67182 c -0.002,-0.80444 0.85057,-7.32909 1.89558,-14.49922 l 1.90002,-13.03661 -10.84152,-10.07737 -10.84152,-10.07737 12.51737,-1.96549 c 6.88456,-1.08101 13.53573,-2.20692 14.78039,-2.50201 1.62733,-0.38583 3.90623,-4.06771 8.11279,-13.10736 3.21737,-6.91395 6.15506,-12.56263 6.52819,-12.55263 0.37313,0.01 3.6079,5.64072 7.18838,12.51269 l 6.50996,12.4945 12.17136,1.38246 c 18.31296,2.08004 17.90123,1.20891 6.30458,13.33922 l -10.00797,10.46851 2.65881,13.5957 c 1.46234,7.47763 2.49484,13.75965 2.29444,13.96004 -0.20039,0.2004 -6.10152,-2.49145 -13.11361,-5.98188 -12.40278,-6.17377 -12.83179,-6.29898 -15.78565,-4.60723 -13.64097,7.81253 -22.26769,11.93929 -22.2716,10.65405 z"
       style="fill:#ffffff;fill-opacity:1;stroke:#000000;stroke-width:5.39932489;stroke-miterlimit:4;stroke-dasharray:none;stroke-opacity:1" />
    <path
       id="path4591"
       d="m 75.169838,125.59578 0.536607,-3.27095 -2.500908,-2.37001 c -2.837895,-2.68934 -2.952515,-2.35773 1.039026,-3.00597 3.38355,-0.54951 3.111151,-0.34068 4.567807,-3.50177 0.734396,-1.59371 1.413584,-2.89697 1.509302,-2.89612 0.09572,8e-4 0.860658,1.29208 1.699861,2.86939 l 1.525823,2.86785 2.564378,0.32887 c 1.410412,0.18087 2.849907,0.32887 3.198882,0.32887 0.348972,0 0.634497,0.0769 0.634497,0.17086 0,0.094 -0.981284,1.23729 -2.180632,2.54069 -1.199346,1.30341 -2.180196,2.50219 -2.179664,2.66396 5.29e-4,0.16177 0.254243,1.59957 0.563806,3.1951 0.309559,1.59554 0.519107,2.94471 0.465658,2.99816 -0.05345,0.0534 -1.417428,-0.56536 -3.031069,-1.37512 l -2.933893,-1.4723 -2.863993,1.59972 c -1.575194,0.87984 -2.928816,1.59971 -3.008043,1.59971 -0.07923,0 0.09742,-1.47192 0.392555,-3.27094 z"
       style="fill:#ffffff;fill-opacity:1;stroke:#000000;stroke-width:1.42857134;stroke-miterlimit:4;stroke-dasharray:none;stroke-opacity:1" />
    <path
       id="path4591-8"
       d="m 130.11107,123.78438 0.53661,-3.27095 -2.50091,-2.37 c -2.8379,-2.68934 -2.95252,-2.35774 1.03903,-3.00598 3.38355,-0.5495 3.11115,-0.34067 4.5678,-3.50176 0.7344,-1.59372 1.41359,-2.89697 1.5093,-2.89612 0.0957,7.9e-4 0.86066,1.29208 1.69986,2.86939 l 1.52583,2.86784 2.56438,0.32887 c 1.41041,0.18088 2.8499,0.32887 3.19888,0.32887 0.34897,0 0.6345,0.0769 0.6345,0.17087 0,0.094 -0.98129,1.23728 -2.18064,2.54069 -1.19934,1.30341 -2.18019,2.50219 -2.17966,2.66396 5.3e-4,0.16177 0.25424,1.59956 0.5638,3.1951 0.30956,1.59554 0.51911,2.94471 0.46566,2.99816 -0.0534,0.0534 -1.41742,-0.56536 -3.03107,-1.37512 l -2.93389,-1.4723 -2.86399,1.59972 c -1.5752,0.87984 -2.92882,1.59971 -3.00804,1.59971 -0.0792,0 0.0974,-1.47193 0.39255,-3.27095 z"
       style="fill:#ffffff;fill-opacity:1;stroke:#000000;stroke-width:1.42857134;stroke-miterlimit:4;stroke-dasharray:none;stroke-opacity:1" />
  </g>
</svg>
