<?xml version="1.0" encoding="UTF-8" standalone="no"?>
<svg
   xmlns:dc="http://purl.org/dc/elements/1.1/"
   xmlns:cc="http://creativecommons.org/ns#"
   xmlns:rdf="http://www.w3.org/1999/02/22-rdf-syntax-ns#"
   xmlns:svg="http://www.w3.org/2000/svg"
   xmlns="http://www.w3.org/2000/svg"
   id="svg8"
   version="1.1"
   viewBox="0 0 132.29167 132.29168"
   height="132.29167mm"
   width="132.29167mm">
  <defs
     id="defs2" />
  <metadata
     id="metadata5">
    <rdf:RDF>
      <cc:Work
         rdf:about="">
        <dc:format>image/svg+xml</dc:format>
        <dc:type
           rdf:resource="http://purl.org/dc/dcmitype/StillImage" />
        <dc:title></dc:title>
      </cc:Work>
    </rdf:RDF>
  </metadata>
  <g
     transform="translate(-43.662468,-77.599953)"
     id="layer1">
    <rect
       y="77.599953"
       x="43.662468"
       height="132.29167"
       width="132.29167"
       id="rect3713"
       style="fill:#304dff;fill-opacity:1;stroke:none;stroke-width:0.19893526;stroke-miterlimit:4;stroke-dasharray:none;stroke-opacity:1" />
    <path
       id="path4616"
       d="M 66.805551,154.35099 H 146.39921 V 177.9667 H 133.49804 V 166.15884 H 83.642674 V 177.9667 H 66.805551 Z"
       style="fill:#d40000;stroke:#000000;stroke-width:1.26499999;stroke-linecap:butt;stroke-linejoin:miter;stroke-miterlimit:4;stroke-dasharray:none;stroke-opacity:1" />
    <path
       id="path4618"
       d="m 66.250199,151.41482 80.065591,0.2513 10.03696,-29.89448 10.2605,4.81784 2.5848,-2.97748 -0.28913,-3.3487 -8.18388,-12.927 3.92692,-4.02089 -0.65449,-4.020875 -5.01773,4.272195 -1.7453,-6.282621 -3.1357,10.081581 -13.63728,10.798 -74.430926,-0.26972 -9.599146,7.79044 3.272436,3.01566 6.32671,-4.52347 z"
       style="fill:#0000ff;stroke:#000000;stroke-width:1.64199996;stroke-linecap:butt;stroke-linejoin:miter;stroke-miterlimit:4;stroke-dasharray:none;stroke-opacity:1" />
    <path
       id="path4591-8"
       d="m 126.85883,139.51684 0.53661,-3.27095 -2.50091,-2.37 c -2.8379,-2.68934 -2.95252,-2.35774 1.03903,-3.00598 3.38355,-0.5495 3.11115,-0.34067 4.5678,-3.50176 0.7344,-1.59372 1.41359,-2.89697 1.5093,-2.89612 0.0957,7.9e-4 0.86066,1.29208 1.69986,2.86939 l 1.52583,2.86784 2.56438,0.32887 c 1.41041,0.18088 2.8499,0.32887 3.19888,0.32887 0.34897,0 0.6345,0.0769 0.6345,0.17087 0,0.094 -0.98129,1.23728 -2.18064,2.54069 -1.19934,1.30341 -2.18019,2.50219 -2.17966,2.66396 5.3e-4,0.16177 0.25424,1.59956 0.5638,3.1951 0.30956,1.59554 0.51911,2.94471 0.46566,2.99816 -0.0534,0.0534 -1.41742,-0.56536 -3.03107,-1.37512 l -2.93389,-1.4723 -2.86399,1.59972 c -1.5752,0.87984 -2.92882,1.59971 -3.00804,1.59971 -0.0792,0 0.0974,-1.47193 0.39255,-3.27095 z"
       style="fill:#ffffff;fill-opacity:1;stroke:#000000;stroke-width:1.42857134;stroke-miterlimit:4;stroke-dasharray:none;stroke-opacity:1" />
    <path
       id="path4589"
       d="m 101.96163,143.29871 c -5.3e-4,-0.21284 0.22505,-1.93915 0.50154,-3.83625 l 0.50272,-3.44927 -2.86849,-2.6663 -2.868482,-2.66631 3.311882,-0.52003 c 1.82154,-0.28602 3.58133,-0.58392 3.91065,-0.662 0.43056,-0.10208 1.03352,-1.07624 2.14651,-3.46798 0.85126,-1.82932 1.62852,-3.32387 1.72725,-3.32122 0.0987,0.003 0.95459,1.49244 1.90192,3.31065 l 1.72243,3.30583 3.22034,0.36578 c 4.8453,0.55034 4.73636,0.31986 1.66808,3.52934 l -2.64794,2.76979 0.70348,3.59719 c 0.38691,1.97846 0.66009,3.64058 0.60707,3.6936 -0.053,0.053 -1.61436,-0.6592 -3.46964,-1.58271 -3.28157,-1.63347 -3.39508,-1.6666 -4.17662,-1.21899 -3.60918,2.06706 -5.89166,3.15893 -5.8927,2.81888 z"
       style="fill:#ffffff;fill-opacity:1;stroke:#000000;stroke-width:1.42857134;stroke-miterlimit:4;stroke-dasharray:none;stroke-opacity:1" />
    <path
       id="path4591"
       d="m 74.931829,139.98858 0.536607,-3.27095 -2.500908,-2.37001 c -2.837895,-2.68934 -2.952515,-2.35773 1.039026,-3.00597 3.38355,-0.54951 3.111151,-0.34068 4.567807,-3.50177 0.734396,-1.59371 1.413584,-2.89697 1.509302,-2.89612 0.09572,8e-4 0.860658,1.29208 1.699861,2.86939 l 1.525823,2.86785 2.564378,0.32887 c 1.410412,0.18087 2.849907,0.32887 3.198882,0.32887 0.348972,0 0.634497,0.0769 0.634497,0.17086 0,0.094 -0.981284,1.23729 -2.180632,2.54069 -1.199346,1.30341 -2.180196,2.50219 -2.179664,2.66396 5.29e-4,0.16177 0.254243,1.59957 0.563806,3.1951 0.309559,1.59554 0.519107,2.94471 0.465658,2.99816 -0.05345,0.0534 -1.417428,-0.56536 -3.031069,-1.37512 l -2.933893,-1.4723 -2.863993,1.59972 c -1.575194,0.87984 -2.928816,1.59971 -3.008043,1.59971 -0.07923,0 0.09742,-1.47192 0.392555,-3.27094 z"
       style="fill:#ffffff;fill-opacity:1;stroke:#000000;stroke-width:1.42857134;stroke-miterlimit:4;stroke-dasharray:none;stroke-opacity:1" />
  </g>
</svg>
