<?xml version="1.0" encoding="UTF-8" standalone="no"?>
<svg
   xmlns:dc="http://purl.org/dc/elements/1.1/"
   xmlns:cc="http://creativecommons.org/ns#"
   xmlns:rdf="http://www.w3.org/1999/02/22-rdf-syntax-ns#"
   xmlns:svg="http://www.w3.org/2000/svg"
   xmlns="http://www.w3.org/2000/svg"
   id="svg8"
   version="1.1"
   viewBox="0 0 132.29167 132.29167"
   height="500"
   width="500">
  <defs
     id="defs2" />
  <metadata
     id="metadata5">
    <rdf:RDF>
      <cc:Work
         rdf:about="">
        <dc:format>image/svg+xml</dc:format>
        <dc:type
           rdf:resource="http://purl.org/dc/dcmitype/StillImage" />
        <dc:title></dc:title>
      </cc:Work>
    </rdf:RDF>
  </metadata>
  <g
     transform="translate(0,-164.70832)"
     id="layer1">
    <rect
       y="164.70831"
       x="0"
       height="132.29167"
       width="132.29167"
       id="rect12"
       style="fill:#00ffcc;stroke-width:0.26458332" />
    <path
       transform="matrix(0.26458333,0,0,0.26458333,0,164.70832)"
       id="path24"
       d="M 0.4950495,250 V -3.1683168e-6 H 250 499.50495 V 250 500 H 250 0.4950495 Z"
       style="opacity:1;fill:#003399;fill-opacity:1;stroke:none;stroke-width:0.99165815;stroke-miterlimit:4;stroke-dasharray:none;stroke-opacity:1" />
    <path
       style="opacity:1;fill:#ffcc00;fill-opacity:1;stroke:none;stroke-width:0.07457594;stroke-miterlimit:4;stroke-dasharray:none;stroke-opacity:1"
       d="m 66.145834,179.2604 1.839034,5.65925 5.950551,2.2e-4 -4.813964,3.49782 1.838607,5.65938 -4.814228,-3.49746 -4.814229,3.49746 1.838607,-5.65938 -4.813964,-3.49782 5.950551,-2.2e-4 z"
       id="path4559" />
    <path
       style="opacity:1;fill:#ffcc00;fill-opacity:1;stroke:none;stroke-width:0.07457594;stroke-miterlimit:4;stroke-dasharray:none;stroke-opacity:1"
       d="m 66.145834,267.63124 1.839034,5.65925 5.950551,2.2e-4 -4.813964,3.49782 1.838607,5.65938 -4.814228,-3.49746 -4.814229,3.49746 1.838607,-5.65938 -4.813964,-3.49782 5.950551,-2.2e-4 z"
       id="path4563" />
    <path
       style="opacity:1;fill:#ffcc00;fill-opacity:1;stroke:none;stroke-width:0.07457594;stroke-miterlimit:4;stroke-dasharray:none;stroke-opacity:1"
       d="m 110.33125,223.44582 1.83903,5.65925 5.95056,2.2e-4 -4.81397,3.49782 1.83861,5.65938 -4.81423,-3.49746 -4.81423,3.49746 1.83861,-5.65938 -4.81397,-3.49782 5.95056,-2.2e-4 z"
       id="path4565" />
    <path
       style="opacity:1;fill:#ffcc00;fill-opacity:1;stroke:none;stroke-width:0.07457594;stroke-miterlimit:4;stroke-dasharray:none;stroke-opacity:1"
       d="m 21.960417,223.44582 1.839034,5.65925 5.950551,2.2e-4 -4.813964,3.49782 1.838607,5.65938 -4.814228,-3.49746 -4.814229,3.49746 1.838607,-5.65938 -4.813964,-3.49782 5.950551,-2.2e-4 z"
       id="path4567" />
    <path
       style="opacity:1;fill:#ffcc00;fill-opacity:1;stroke:none;stroke-width:0.07457594;stroke-miterlimit:4;stroke-dasharray:none;stroke-opacity:1"
       d="m 88.106251,185.34582 1.839034,5.65925 5.950551,2.2e-4 -4.813964,3.49782 1.838607,5.65938 -4.814228,-3.49746 -4.814229,3.49746 1.838607,-5.65938 -4.813964,-3.49782 5.950551,-2.2e-4 z"
       id="path4569" />
    <path
       style="opacity:1;fill:#ffcc00;fill-opacity:1;stroke:none;stroke-width:0.07457594;stroke-miterlimit:4;stroke-dasharray:none;stroke-opacity:1"
       d="m 44.185417,261.54582 1.839034,5.65925 5.950551,2.2e-4 -4.813964,3.49782 1.838607,5.65938 -4.814228,-3.49746 -4.814229,3.49746 1.838607,-5.65938 -4.813964,-3.49782 5.950551,-2.2e-4 z"
       id="path4571" />
    <path
       style="opacity:1;fill:#ffcc00;fill-opacity:1;stroke:none;stroke-width:0.07457594;stroke-miterlimit:4;stroke-dasharray:none;stroke-opacity:1"
       d="m 88.106251,261.54582 1.839034,5.65925 5.950551,2.2e-4 -4.813964,3.49782 1.838607,5.65938 -4.814228,-3.49746 -4.814229,3.49746 1.838607,-5.65938 -4.813964,-3.49782 5.950551,-2.2e-4 z"
       id="path4573" />
    <path
       style="opacity:1;fill:#ffcc00;fill-opacity:1;stroke:none;stroke-width:0.07457594;stroke-miterlimit:4;stroke-dasharray:none;stroke-opacity:1"
       d="m 44.185417,185.34582 1.839034,5.65925 5.950551,2.2e-4 -4.813964,3.49782 1.838607,5.65938 -4.814228,-3.49746 -4.814229,3.49746 1.838607,-5.65938 -4.813964,-3.49782 5.950551,-2.2e-4 z"
       id="path4575" />
    <path
       style="opacity:1;fill:#ffcc00;fill-opacity:1;stroke:none;stroke-width:0.07457594;stroke-miterlimit:4;stroke-dasharray:none;stroke-opacity:1"
       d="m 104.24583,201.4854 1.83904,5.65925 5.95055,2.2e-4 -4.81397,3.49782 1.83861,5.65938 -4.81423,-3.49746 -4.814225,3.49746 1.838605,-5.65938 -4.813962,-3.49782 5.950552,-2.2e-4 z"
       id="path4577" />
    <path
       style="opacity:1;fill:#ffcc00;fill-opacity:1;stroke:none;stroke-width:0.07457594;stroke-miterlimit:4;stroke-dasharray:none;stroke-opacity:1"
       d="m 28.045834,245.40624 1.839034,5.65925 5.950551,2.2e-4 -4.813964,3.49782 1.838607,5.65938 -4.814228,-3.49746 -4.814229,3.49746 1.838607,-5.65938 -4.813964,-3.49782 5.950551,-2.2e-4 z"
       id="path4579" />
    <path
       style="opacity:1;fill:#ffcc00;fill-opacity:1;stroke:none;stroke-width:0.07457594;stroke-miterlimit:4;stroke-dasharray:none;stroke-opacity:1"
       d="m 28.045834,201.4854 1.839034,5.65925 5.950551,2.2e-4 -4.813964,3.49782 1.838607,5.65938 -4.814228,-3.49746 -4.814229,3.49746 1.838607,-5.65938 -4.813964,-3.49782 5.950551,-2.2e-4 z"
       id="path4581" />
    <path
       style="opacity:1;fill:#ffcc00;fill-opacity:1;stroke:none;stroke-width:0.07457594;stroke-miterlimit:4;stroke-dasharray:none;stroke-opacity:1"
       d="m 104.24583,245.40624 1.83904,5.65925 5.95055,2.2e-4 -4.81397,3.49782 1.83861,5.65938 -4.81423,-3.49746 -4.814225,3.49746 1.838605,-5.65938 -4.813962,-3.49782 5.950552,-2.2e-4 z"
       id="path4583" />
  </g>
</svg>
