<?xml version="1.0" encoding="UTF-8" standalone="no"?>
<svg
   xmlns:dc="http://purl.org/dc/elements/1.1/"
   xmlns:cc="http://creativecommons.org/ns#"
   xmlns:rdf="http://www.w3.org/1999/02/22-rdf-syntax-ns#"
   xmlns:svg="http://www.w3.org/2000/svg"
   xmlns="http://www.w3.org/2000/svg"
   xmlns:xlink="http://www.w3.org/1999/xlink"
   id="svg8"
   version="1.1"
   viewBox="0 0 132.29167 132.29167"
   height="500"
   width="500">
  <defs
     id="defs2">
    <linearGradient
       id="linearGradient4713">
      <stop
         id="stop4709"
         offset="0"
         style="stop-color:#ffff00;stop-opacity:1" />
      <stop
         id="stop4711"
         offset="1"
         style="stop-color:#aa4400;stop-opacity:1" />
    </linearGradient>
    <linearGradient
       gradientUnits="userSpaceOnUse"
       y2="201.74998"
       x2="169.33333"
       y1="291.70831"
       x1="-10.583333"
       id="linearGradient4715"
       xlink:href="#linearGradient4713" />
  </defs>
  <metadata
     id="metadata5">
    <rdf:RDF>
      <cc:Work
         rdf:about="">
        <dc:format>image/svg+xml</dc:format>
        <dc:type
           rdf:resource="http://purl.org/dc/dcmitype/StillImage" />
        <dc:title></dc:title>
      </cc:Work>
    </rdf:RDF>
  </metadata>
  <g
     transform="translate(0,-164.70832)"
     id="layer1">
    <rect
       y="164.70831"
       x="0"
       height="132.29167"
       width="132.29167"
       id="rect12"
       style="fill:url(#linearGradient4715);stroke-width:0.26458332;fill-opacity:1" />
    <path
       id="path4727"
       d="m 63.499999,175.29165 c -8.497402,1.32836 -17.806941,-3.23606 -25.640322,1.86159 -8.751068,4.35061 -18.229164,9.78593 -22.184568,19.21594 -2.011486,6.15136 0.236625,13.01547 -2.685522,18.95845 -2.562079,10.85718 3.355849,21.55639 1.48887,32.4727 -0.349199,8.33423 3.45405,17.52935 11.624638,20.7976 6.608613,2.84967 13.723398,4.49695 20.792924,5.69546 7.835216,0.98234 15.852223,2.14667 22.87881,5.96319 8.461462,2.5869 17.560638,2.15579 26.229705,1.22111 6.648736,-1.65985 12.450596,-6.60968 14.522886,-13.22199 4.81637,-9.90855 4.0938,-21.17476 5.39091,-31.80903 1.73049,-7.64682 3.39998,-16.37349 -1.2575,-23.36705 -4.24993,-9.84262 -6.03037,-21.71058 -15.272559,-28.45194 -6.35013,-5.20013 -14.993046,-5.24392 -22.021545,-9.08673 -4.064405,-1.41571 -10.862045,-5.2557 -13.866727,-0.2493 z"
       style="fill:#d45500;stroke:#000000;stroke-width:0.26458332px;stroke-linecap:butt;stroke-linejoin:miter;stroke-opacity:1" />
    <circle
       r="11.099942"
       cy="250.8271"
       cx="63.488388"
       id="path3871"
       style="opacity:1;fill:#d38d5f;fill-opacity:1;stroke:#000000;stroke-width:0.18529035;stroke-miterlimit:4;stroke-dasharray:none;stroke-opacity:1" />
    <path
       id="path3862"
       d="m 44.719744,197.45482 c -2.821669,-0.98752 -5.623959,-2.70407 -8.68267,-2.55684 -2.481387,0.92384 -4.596885,3.44207 -4.554615,6.53512 -0.626494,7.5146 0.848271,19.19984 3.400178,26.25454 1.282684,3.27398 0.762517,7.14098 2.748902,10.28131 1.632279,3.33662 3.706082,6.43503 5.342096,9.77048 -0.252085,4.62022 3.647273,8.67839 8.179,9.02214 5.083753,0.72219 10.348829,-2.59482 11.800895,-7.54214 0.123776,-1.45406 -0.192124,-5.15519 0.671644,-5.38472 0.33474,3.0955 -0.558208,6.53031 1.989162,8.96329 3.923361,5.24323 13.173523,5.56761 16.762841,-0.20274 1.552102,-2.30862 0.859083,-5.28726 2.676514,-7.47183 2.785603,-4.92236 6.233157,-9.96748 6.019693,-15.8839 2.963735,-6.77532 4.283384,-18.336 4.252279,-25.71287 -0.201966,-2.8322 -0.368573,-6.85383 -3.590717,-7.89304 -2.045954,-1.81253 -5.392092,0.215 -7.836601,1.01793 -6.042051,2.275 -11.324864,6.68811 -18.369937,6.31009 -1.351398,0.0178 -2.703314,0.004 -4.054871,0.008 -7.39996,0.36999 -13.072158,-3.98542 -16.753793,-5.51486 z"
       style="fill:#ff9955;stroke:#000000;stroke-width:0.18499902px;stroke-linecap:butt;stroke-linejoin:miter;stroke-opacity:1" />
    <path
       id="path4679"
       d="m 57.773557,224.79952 c -0.735086,-2.31309 1.485555,-6.63679 -1.513835,-7.53403 -2.939173,-0.63409 -5.784823,-1.66508 -8.692282,-2.39605 -1.291948,-0.48061 -3.613519,-2.29846 -4.224828,-1.98063 0.917756,2.50509 2.786935,4.3538 5.368944,5.03875 1.984745,1.66263 4.910033,1.10498 6.759279,2.80804 1.080069,1.16594 1.405169,2.78237 2.302722,4.06392 z"
       style="fill:#000000;stroke:#000000;stroke-width:0.18499902px;stroke-linecap:butt;stroke-linejoin:miter;stroke-opacity:1" />
    <path
       style="fill:#000000;stroke:#000000;stroke-width:0.18499902px;stroke-linecap:butt;stroke-linejoin:miter;stroke-opacity:1"
       d="m 68.960436,224.79952 c 0.735086,-2.31309 -1.485554,-6.63679 1.513834,-7.53403 2.939172,-0.63409 5.784825,-1.66508 8.692279,-2.39605 1.291951,-0.48061 3.613523,-2.29846 4.224829,-1.98063 -0.917753,2.50509 -2.786935,4.3538 -5.368944,5.03875 -1.984742,1.66263 -4.910033,1.10498 -6.759275,2.80804 -1.08007,1.16594 -1.40517,2.78237 -2.302723,4.06392 z"
       id="path4687" />
    <path
       id="path4695"
       d="m 54.073576,232.93952 c 1.977829,0.01 4.288998,1.20961 6.187859,1.68753 2.17661,0.14898 3.920691,0.14614 6.119629,0.0273 1.798623,0.31013 4.623047,-1.01565 6.192417,-1.71489 -0.121081,1.23819 -2.656689,2.90532 -3.534015,3.77797 -1.588605,1.34601 -3.551779,3.18709 -4.543932,5.08555 -0.132799,1.21902 -1.392535,2.11468 -2.314513,0.37625 -1.70865,-2.17586 -2.09187,-3.97904 -4.410063,-5.66202 -0.827773,-0.90593 -2.480889,-2.19112 -3.418942,-2.90509 -0.177709,-0.17399 -0.300922,-0.41851 -0.27844,-0.67266 z"
       style="fill:#000000;stroke:#000000;stroke-width:0.18499902px;stroke-linecap:butt;stroke-linejoin:miter;stroke-opacity:1" />
  </g>
</svg>
