<?xml version="1.0" encoding="UTF-8" standalone="no"?>
<svg
   xmlns:dc="http://purl.org/dc/elements/1.1/"
   xmlns:cc="http://creativecommons.org/ns#"
   xmlns:rdf="http://www.w3.org/1999/02/22-rdf-syntax-ns#"
   xmlns:svg="http://www.w3.org/2000/svg"
   xmlns="http://www.w3.org/2000/svg"
   xmlns:xlink="http://www.w3.org/1999/xlink"
   id="svg8"
   version="1.1"
   viewBox="0 0 132.29167 132.29167"
   height="500"
   width="500">
  <defs
     id="defs2">
    <linearGradient
       id="linearGradient6321">
      <stop
         id="stop6317"
         offset="0"
         style="stop-color:#0000ff;stop-opacity:1" />
      <stop
         style="stop-color:#0000ff;stop-opacity:1"
         offset="0.125"
         id="stop6333" />
      <stop
         style="stop-color:#00ffff;stop-opacity:1"
         offset="0.25"
         id="stop6329" />
      <stop
         id="stop6335"
         offset="0.375"
         style="stop-color:#800080;stop-opacity:1" />
      <stop
         style="stop-color:#ff00ff;stop-opacity:1"
         offset="0.5"
         id="stop6325" />
      <stop
         id="stop6331"
         offset="0.625"
         style="stop-color:#ff0000;stop-opacity:1" />
      <stop
         id="stop6327"
         offset="0.75"
         style="stop-color:#ff6600;stop-opacity:1" />
      <stop
         style="stop-color:#00ff00;stop-opacity:1"
         offset="0.875"
         id="stop6337" />
      <stop
         id="stop6319"
         offset="1"
         style="stop-color:#008000;stop-opacity:1" />
    </linearGradient>
    <linearGradient
       gradientUnits="userSpaceOnUse"
       y2="233.49998"
       x2="137.58333"
       y1="233.49998"
       x1="-5.2916665"
       id="linearGradient6323"
       xlink:href="#linearGradient6321" />
  </defs>
  <metadata
     id="metadata5">
    <rdf:RDF>
      <cc:Work
         rdf:about="">
        <dc:format>image/svg+xml</dc:format>
        <dc:type
           rdf:resource="http://purl.org/dc/dcmitype/StillImage" />
        <dc:title></dc:title>
      </cc:Work>
    </rdf:RDF>
  </metadata>
  <g
     transform="translate(0,-164.70832)"
     id="layer1">
    <rect
       y="164.70831"
       x="0"
       height="132.29167"
       width="132.29167"
       id="rect12"
       style="fill:url(#linearGradient6323);stroke-width:0.26458332;fill-opacity:1" />
    <path
       id="path6208"
       transform="matrix(0.26458333,0,0,0.26458333,0,164.70832)"
       d="M 250 40 A 210 210 0 0 0 249.36914 40.021484 C 246.20196 74.167754 242.81952 108.70404 250.91406 142.37891 C 253.93017 182.09014 244.47549 225.55864 266.48242 261.4668 C 286.60913 284.97916 319.1578 291.06263 341.88477 311.39062 C 369.04557 330.40642 392.55089 354.4921 420.09375 372.81836 A 210 210 0 0 0 460 250 A 210 210 0 0 0 250 40 z "
       style="fill:#ffcc00;stroke:#000000;stroke-width:0.99999994px;stroke-linecap:butt;stroke-linejoin:miter;stroke-opacity:1" />
    <path
       id="path6260"
       transform="matrix(0.26458333,0,0,0.26458333,0,164.70832)"
       d="M 249.50586 40.017578 A 210 210 0 0 0 40 250 A 210 210 0 0 0 81.212891 374.23242 C 82.360616 373.33549 82.132965 371.3319 83.167969 370.29688 C 83.689797 369.77504 84.558056 369.74941 85.148438 369.30664 C 85.895215 368.74655 86.468842 367.98623 87.128906 367.32617 C 87.458938 366.99614 87.910397 366.75339 88.119141 366.33594 C 88.266731 366.04072 87.885755 365.5789 88.119141 365.3457 C 88.352508 365.11251 88.876027 365.5789 89.109375 365.3457 C 89.172822 365.28228 90.966896 361.57116 91.089844 361.38672 C 91.659415 360.53236 93.285242 359.18934 94.058594 358.41602 C 94.718658 357.75596 95.378998 357.0956 96.039062 356.43555 C 96.369095 356.10552 96.640947 355.70421 97.029297 355.44531 C 97.64333 355.03599 98.487938 354.97692 99.009766 354.45508 C 99.531594 353.93328 99.478172 352.99641 100 352.47461 C 100.52183 351.95277 101.45864 352.00621 101.98047 351.48438 C 103.02412 350.44073 102.91728 348.56903 103.96094 347.52539 C 104.48276 347.00355 105.32738 346.94452 105.94141 346.53516 C 106.32976 346.27626 106.51418 345.75355 106.93164 345.54492 C 109.37021 344.3258 106.0363 348.41876 109.90039 344.55469 C 110.42222 344.03285 110.36879 343.09606 110.89062 342.57422 C 111.124 342.34102 111.56776 342.67853 111.88086 342.57422 C 112.58096 342.34083 113.17613 341.858 113.86133 341.58398 C 114.83034 341.19639 115.93711 341.13071 116.83203 340.59375 C 123.13717 336.81067 113.00348 340.06504 122.77148 337.62305 C 123.06667 337.47546 122.5381 336.86601 122.77148 336.63281 C 123.00485 336.39962 123.52833 336.86601 123.76172 336.63281 C 123.99507 336.39946 123.52833 335.87577 123.76172 335.64258 C 124.28354 335.12078 125.08213 334.98425 125.74219 334.6543 C 126.07223 334.6543 126.49904 334.88749 126.73242 334.6543 C 127.25425 334.13246 127.20082 333.19567 127.72266 332.67383 C 132.5154 327.88108 126.97786 334.82075 131.68359 331.68359 C 132.29763 331.27423 132.08345 330.1459 132.67383 329.70312 C 133.50874 329.07701 134.65444 329.04284 135.64453 328.71289 C 135.97457 328.71289 136.33763 328.86067 136.63281 328.71289 C 137.46774 328.2954 137.83658 327.25022 138.61328 326.73242 C 139.22731 326.32306 139.97972 326.15155 140.59375 325.74219 C 140.9821 325.48333 141.16652 324.96058 141.58398 324.75195 C 141.87917 324.60417 142.26112 324.85627 142.57422 324.75195 C 144.79712 324.01098 145.26588 322.91103 147.52539 321.78125 C 147.82058 321.63347 148.22044 321.92903 148.51562 321.78125 C 148.93309 321.57251 149.17583 321.12292 149.50586 320.79297 C 149.83589 320.79297 150.19896 320.94075 150.49414 320.79297 C 151.32906 320.37548 151.63968 319.22995 152.47461 318.8125 C 153.06499 318.51732 153.98834 319.27923 154.45508 318.8125 C 154.9769 318.29066 154.83128 317.24139 155.44531 316.83203 C 155.99452 316.4658 156.79959 317.04066 157.42578 316.83203 C 157.86857 316.68444 158.02767 316.10069 158.41602 315.8418 C 159.03005 315.43244 159.78245 315.26089 160.39648 314.85156 C 160.78483 314.59266 160.94393 314.00911 161.38672 313.86133 C 162.01291 313.6527 162.70712 313.86133 163.36719 313.86133 C 163.69722 313.86133 164.08085 314.04426 164.35547 313.86133 C 165.13216 313.34353 165.67588 312.54092 166.33594 311.88086 C 166.66598 311.55083 166.90871 311.09925 167.32617 310.89062 C 167.62136 310.74285 168.00331 310.99494 168.31641 310.89062 C 169.01652 310.65724 169.59677 310.13359 170.29688 309.90039 C 170.60997 309.79608 171.05372 310.13359 171.28711 309.90039 C 171.5205 309.667 171.05372 309.14335 171.28711 308.91016 C 171.52048 308.67696 172.04396 309.14335 172.27734 308.91016 C 172.51073 308.67681 172.04396 308.15312 172.27734 307.91992 C 172.74407 307.45319 173.7086 308.28616 174.25781 307.91992 C 175.36484 307.18189 177.14109 305.03859 178.21875 303.96094 C 178.87882 303.30088 179.5372 302.64053 180.19727 301.98047 C 180.5273 301.65044 180.97876 301.40772 181.1875 300.99023 C 181.33509 300.69505 180.95411 300.2332 181.1875 300 C 181.65424 299.53327 182.61876 300.36624 183.16797 300 C 183.94466 299.4822 184.48838 298.67959 185.14844 298.01953 C 185.47848 297.6895 185.72121 297.23793 186.13867 297.0293 C 186.43386 296.88152 186.89552 297.26249 187.12891 297.0293 C 187.36229 296.79591 186.89552 296.27226 187.12891 296.03906 C 187.36228 295.80587 187.88575 296.27226 188.11914 296.03906 C 188.64097 295.51726 188.58755 294.5804 189.10938 294.05859 C 189.63121 293.53675 190.42978 293.39831 191.08984 293.06836 C 191.7499 292.73833 192.36825 292.31365 193.06836 292.08008 C 193.38145 291.97576 193.78397 292.26301 194.05859 292.08008 C 194.83528 291.56228 195.29228 290.6597 196.03906 290.09961 C 196.62944 289.65684 197.4055 289.51874 198.01953 289.10938 C 198.40788 288.85048 198.67974 288.44909 199.00977 288.11914 C 199.33979 287.78911 199.79126 287.54639 200 287.12891 C 200.14759 286.83373 199.72542 286.3216 200 286.13867 C 200.86837 285.55976 202.03722 285.61517 202.9707 285.14844 C 203.38816 284.93973 203.63091 284.48816 203.96094 284.1582 C 203.96094 283.82817 203.68632 283.3509 203.96094 283.16797 C 204.82931 282.58902 205.99817 282.64447 206.93164 282.17773 C 211.0522 280.11744 205.87137 282.24581 207.91992 280.19727 C 208.15329 279.96369 208.61498 280.34505 208.91016 280.19727 C 209.32762 279.98852 209.4576 279.35481 209.90039 279.20703 C 210.52658 278.9984 211.33165 279.57327 211.88086 279.20703 C 212.4949 278.79767 212.46173 277.84258 212.87109 277.22852 C 213.12999 276.84017 213.5313 276.56823 213.86133 276.23828 C 214.19136 275.90825 214.46321 275.50694 214.85156 275.24805 C 215.03598 275.12506 218.74908 273.33107 218.8125 273.26758 C 219.33433 272.74574 219.2809 271.80895 219.80273 271.28711 C 220.26947 270.82038 221.31451 271.75384 221.78125 271.28711 C 222.8249 270.24347 222.71806 268.36981 223.76172 267.32617 C 224.28354 266.80433 225.22037 266.85778 225.74219 266.33594 C 226.26402 265.81414 226.2106 264.87922 226.73242 264.35742 C 227.25425 263.83558 228.19106 263.88903 228.71289 263.36719 C 229.23472 262.84539 229.0891 261.79604 229.70312 261.38672 C 230.25234 261.02048 231.05739 261.59535 231.68359 261.38672 C 232.12637 261.23909 232.3438 260.72644 232.67383 260.39648 C 233.94833 259.12199 234.82143 258.02956 236.63281 257.42578 C 237.25901 257.21715 238.14654 257.89252 238.61328 257.42578 C 238.84667 257.1924 238.3799 256.66874 238.61328 256.43555 C 238.84665 256.20235 239.30833 256.58333 239.60352 256.43555 C 243.72407 254.37521 238.5452 256.50362 240.59375 254.45508 C 240.82712 254.2215 241.3506 254.68827 241.58398 254.45508 C 241.81737 254.22169 241.3506 253.69804 241.58398 253.46484 C 241.81735 253.23165 242.34083 253.69804 242.57422 253.46484 C 242.8076 253.23146 242.34083 252.70781 242.57422 252.47461 C 244.62272 250.42607 242.49441 255.60493 244.55469 251.48438 C 244.88275 250.82821 244.27806 248.35522 244.55469 247.52539 C 244.78805 246.82531 245.31157 246.24504 245.54492 245.54492 C 245.64927 245.23186 245.39733 244.84987 245.54492 244.55469 C 245.75366 244.13724 246.32641 243.9819 246.53516 243.56445 C 247.06299 242.50879 246.00733 242.63964 246.53516 241.58398 C 246.74388 241.16654 247.3778 241.03652 247.52539 240.59375 C 247.67634 240.14089 247.30512 237.07339 247.52539 236.63281 C 249.79106 232.10154 247.11529 240.83575 249.50586 233.66406 C 249.61021 233.35097 249.50586 233.00378 249.50586 232.67383 C 249.50586 231.64942 249.31722 226.49666 249.50586 225.74219 C 249.68485 225.02627 250.31514 224.47764 250.49414 223.76172 C 250.68278 223.00725 250.49414 217.85643 250.49414 216.83203 L 250.49414 202.9707 L 250.49414 152.47461 C 250.28271 152.05176 250.49414 147.9168 250.49414 147.52539 L 250.49414 152.47461 C 250.70287 152.89206 251.33678 153.02207 251.48438 153.46484 C 251.49606 153.49989 251.49515 153.60445 251.50391 153.65625 C 251.54088 152.23838 251.65916 149.04007 251.48438 148.51562 C 251.25101 147.81555 250.72753 147.23524 250.49414 146.53516 C 250.23105 145.74584 250.73361 141.82361 250.49414 141.58398 C 250.26077 141.35079 249.61021 141.89693 249.50586 141.58398 C 249.19276 140.6447 249.50586 139.60337 249.50586 138.61328 L 249.50586 130.69336 L 249.50586 67.326172 C 249.21068 66.73581 249.50586 66.005798 249.50586 65.345703 L 249.50586 59.40625 L 249.50586 41.583984 L 249.50586 40.017578 z M 251.54492 155.49219 C 251.52166 156.25045 251.48438 157.03906 251.48438 157.42578 L 251.48438 166.33594 C 251.48438 166.58161 251.43006 170.21524 251.48438 170.29688 C 252.00218 171.07357 252.94704 171.50065 253.46484 172.27734 C 253.57853 172.44791 253.46484 177.08716 253.46484 177.22852 L 253.46484 189.10938 L 253.46484 218.8125 L 253.46484 248.06836 C 253.85902 247.95938 254.24253 247.84423 254.45508 247.52539 C 254.52269 247.42402 254.45508 244.12802 254.45508 243.56445 L 254.45508 233.66406 L 254.45508 198.01953 L 254.45508 173.26758 L 254.45508 166.33594 L 254.45508 164.35547 C 254.45508 164.02544 254.60267 163.66237 254.45508 163.36719 C 254.24634 162.9497 253.61243 162.81972 253.46484 162.37695 C 253.16724 161.48412 253.80538 156.94639 253.46484 156.43555 C 253.0697 155.84283 252.08262 155.95286 251.54492 155.49219 z "
       style="fill:#ff2a2a;stroke:#000000;stroke-width:0.99999994px;stroke-linecap:butt;stroke-linejoin:miter;stroke-opacity:1" />
    <path
       id="path6303"
       d="m 63.499999,233.49999 c -4.828789,0.849 -9.309518,3.44152 -12.368531,7.28282 -2.719494,2.43516 -6.389529,3.33731 -9.387232,5.36001 -4.09068,2.51488 -8.591326,4.69041 -11.537141,8.63043 -1.834074,3.02611 -5.353632,4.08853 -7.857237,6.36857 -2.779794,1.86221 -1.7611,5.84885 0.92625,7.21443 2.537894,2.4943 5.268095,4.81467 8.380907,6.56153 2.256192,1.77194 4.224138,4.01593 7.032515,4.93797 2.501908,0.94097 4.864803,2.17613 7.129358,3.57915 4.441055,2.34346 9.50244,3.27051 14.493967,3.08925 2.308554,0.43659 5.417777,0.44198 5.810043,-2.61521 0.551101,-3.24231 0.03299,-6.5592 0.0285,-9.82922 -0.391712,-5.36832 0.09466,-10.75486 -0.263256,-16.11994 -1.353488,-3.46417 -0.301368,-7.2298 -0.673977,-10.82657 3e-6,-4.55064 0.145671,-9.10684 -0.141069,-13.65236 -0.444804,-0.44809 -1.059113,0.0711 -1.573097,0.0191 z"
       style="fill:#0066ff;stroke:#000000;stroke-width:0.26458332px;stroke-linecap:butt;stroke-linejoin:miter;stroke-opacity:1" />
    <path
       id="path6310"
       d="m 111.125,265.24999 c 0.94074,-3.09329 -1.89624,-5.58519 -4.37497,-6.84207 -7.374546,-3.90388 -14.700303,-8.10552 -20.789982,-13.88878 -1.840461,-1.68372 -3.27377,-3.82436 -5.524074,-5.04481 -2.749982,-1.70367 -5.555963,-3.28503 -8.41281,-4.78814 -1.815878,-0.75521 -4.583323,-3.58887 -6.086387,-1.73732 -0.827084,2.88062 0.766386,5.787 0.504629,8.73093 0.279612,7.30959 -0.02566,14.62688 0.101008,21.93863 -0.179515,3.86626 -0.827613,7.68694 -1.081989,11.55074 -0.0018,3.05806 -1.147007,6.64368 0.732743,9.3416 2.778487,2.81002 7.344484,2.85007 10.87134,1.65501 3.29622,-1.38787 6.158727,-4.09707 9.931695,-4.08334 5.096518,-0.63184 9.511052,-3.59484 13.114817,-7.10066 2.61607,-2.40038 5.61255,-4.31694 8.68602,-6.05673 1.19159,-0.86623 2.30035,-2.12284 2.32796,-3.67506 z"
       style="fill:#37c837;stroke:#000000;stroke-width:0.26458332px;stroke-linecap:butt;stroke-linejoin:miter;stroke-opacity:1" />
    <path
       id="path6170"
       d="m 121.70834,230.85416 a 55.5625,55.5625 0 0 1 -55.562504,55.5625 55.5625,55.5625 0 0 1 -55.5625,-55.5625 55.5625,55.5625 0 0 1 55.5625,-55.5625 55.5625,55.5625 0 0 1 55.562504,55.5625 z"
       style="opacity:1;fill:none;fill-opacity:1;stroke:#000000;stroke-width:5.29166651;stroke-miterlimit:4;stroke-dasharray:none;stroke-opacity:1" />
    <path
       id="rect6190"
       d="m 63.5,175.29166 h 5.291667 v 111.125 H 63.5 Z"
       style="opacity:1;fill:#000000;fill-opacity:1;stroke:none;stroke-width:5.29166651;stroke-miterlimit:4;stroke-dasharray:none;stroke-opacity:1" />
    <path
       id="rect6192"
       d="m 68.147862,228.20832 45.235678,32.39218 -2.78771,4.344 -45.235678,-32.39219 z"
       style="opacity:1;fill:#000000;fill-opacity:1;stroke:none;stroke-width:5.10617495;stroke-miterlimit:4;stroke-dasharray:none;stroke-opacity:1" />
    <path
       id="rect6194"
       d="m 69.595078,223.01341 h 56.100772 v 5.20454 H 69.595078 Z"
       style="opacity:1;fill:#000000;fill-opacity:1;stroke:none;stroke-width:5.15203762;stroke-miterlimit:4;stroke-dasharray:none;stroke-opacity:1"
       transform="matrix(-0.81304441,0.58220167,0.54009154,0.84160628,0,0)" />
  </g>
</svg>
