<?xml version="1.0" encoding="UTF-8" standalone="no"?>
<!-- Created with Inkscape (http://www.inkscape.org/) -->

<svg
   xmlns:dc="http://purl.org/dc/elements/1.1/"
   xmlns:cc="http://creativecommons.org/ns#"
   xmlns:rdf="http://www.w3.org/1999/02/22-rdf-syntax-ns#"
   xmlns:svg="http://www.w3.org/2000/svg"
   xmlns="http://www.w3.org/2000/svg"
   xmlns:sodipodi="http://sodipodi.sourceforge.net/DTD/sodipodi-0.dtd"
   xmlns:inkscape="http://www.inkscape.org/namespaces/inkscape"
   width="905.08716"
   height="231.54697"
   viewBox="0 0 239.47097 61.263471"
   version="1.1"
   id="svg8"
   inkscape:version="0.92.3 (2405546, 2018-03-11)"
   sodipodi:docname="logo.svg">
  <defs
     id="defs2">
    <inkscape:perspective
       sodipodi:type="inkscape:persp3d"
       inkscape:vp_x="68.822253 : 129.70506 : 1"
       inkscape:vp_y="0 : 1057.1894 : 0"
       inkscape:vp_z="477.78913 : 46.830875 : 1"
       inkscape:persp3d-origin="270.5238 : 20.510407 : 1"
       id="perspective1028" />
    <inkscape:perspective
       sodipodi:type="inkscape:persp3d"
       inkscape:vp_x="-33.80787 : 99.21875 : 1"
       inkscape:vp_y="0 : 999.99999 : 0"
       inkscape:vp_z="480.40896 : 153.31999 : 1"
       inkscape:persp3d-origin="164.62963 : 66.145837 : 1"
       id="perspective946" />
  </defs>
  <sodipodi:namedview
     id="base"
     pagecolor="#ffffff"
     bordercolor="#666666"
     borderopacity="1.0"
     inkscape:pageopacity="0.0"
     inkscape:pageshadow="2"
     inkscape:zoom="0.85"
     inkscape:cx="574.52554"
     inkscape:cy="213.19573"
     inkscape:document-units="mm"
     inkscape:current-layer="g4922"
     showgrid="false"
     units="px"
     fit-margin-top="0"
     fit-margin-left="0"
     fit-margin-right="0"
     fit-margin-bottom="0"
     inkscape:window-width="1920"
     inkscape:window-height="1017"
     inkscape:window-x="-8"
     inkscape:window-y="-8"
     inkscape:window-maximized="1" />
  <metadata
     id="metadata5">
    <rdf:RDF>
      <cc:Work
         rdf:about="">
        <dc:format>image/svg+xml</dc:format>
        <dc:type
           rdf:resource="http://purl.org/dc/dcmitype/StillImage" />
        <dc:title></dc:title>
      </cc:Work>
    </rdf:RDF>
  </metadata>
  <g
     inkscape:label="Layer 1"
     inkscape:groupmode="layer"
     id="layer1"
     transform="translate(-74.88122,-165.01148)">
    <g
       id="g861">
      <text
         id="text817"
         y="224.42856"
         x="74.083336"
         style="font-style:normal;font-weight:normal;font-size:10.58333302px;line-height:1.25;font-family:sans-serif;letter-spacing:0px;word-spacing:0px;fill:#808080;fill-opacity:1;stroke:#000000;stroke-width:0.26458332;stroke-miterlimit:4;stroke-dasharray:none;stroke-opacity:1"
         xml:space="preserve"><tspan
           style="font-style:normal;font-variant:normal;font-weight:normal;font-stretch:normal;font-size:50.79999924px;font-family:'Century Gothic';-inkscape-font-specification:'Century Gothic';fill:#808080;stroke:#000000;stroke-width:0.26458332;stroke-miterlimit:4;stroke-dasharray:none;stroke-opacity:1"
           y="224.42856"
           x="74.083336"
           id="tspan815"
           sodipodi:role="line"><tspan
   id="tspan832"
   style="font-size:70.55555725px;fill:#808080;stroke:#000000;stroke-width:0.26458332;stroke-miterlimit:4;stroke-dasharray:none;stroke-opacity:1">S</tspan>ource</tspan></text>
      <text
         xml:space="preserve"
         style="font-style:normal;font-weight:normal;font-size:5.03209448px;line-height:1.25;font-family:sans-serif;letter-spacing:0px;word-spacing:0px;fill:#808080;fill-opacity:1;stroke:#000000;stroke-width:0.12580237;stroke-miterlimit:4;stroke-dasharray:none;stroke-opacity:1"
         x="109.8453"
         y="192.81412"
         id="text854"><tspan
           sodipodi:role="line"
           id="tspan852"
           x="109.8453"
           y="192.81412"
           style="font-style:normal;font-variant:normal;font-weight:normal;font-stretch:normal;font-size:24.15405464px;font-family:'Century Gothic';-inkscape-font-specification:'Century Gothic';fill:#808080;stroke:#000000;stroke-width:0.12580237;stroke-miterlimit:4;stroke-dasharray:none;stroke-opacity:1">The</tspan></text>
      <g
         id="g4922"
         transform="matrix(0,0.72592544,0.79132842,0,136.37889,-53.141011)"
         style="stroke:#000000;stroke-width:0.34964031;stroke-miterlimit:4;stroke-dasharray:none;stroke-opacity:1">
        <path
           inkscape:connector-curvature="0"
           id="path1175"
           transform="matrix(0.26458333,0,0,0.26458333,0,98.562483)"
           d="m 1425.0898,228.75586 c -47.806,-0.35196 -82.1925,18.31149 -118.2968,33.52344 -25.6743,10.81738 -52.209,19.88329 -84.9434,19.04492 -24.317,-0.62277 -52.0462,-6.7172 -85.3789,-21.58008 v 195.37695 c 33.4143,14.95335 61.1345,21.05622 85.4023,21.67774 32.5361,0.83331 58.8979,-8.1733 84.5293,-18.97266 36.0443,-15.18658 70.6627,-33.91778 118.711,-33.57617 3.2032,0.0228 6.4661,0.12911 9.7929,0.32812 6.172,0.36921 12.5705,1.0605 19.211,2.10157 V 231.21094 c -10.2354,-1.61694 -19.8805,-2.38774 -29.0274,-2.45508 z"
           style="opacity:1;fill:#999999;fill-opacity:1;stroke:#000000;stroke-width:1.32147515;stroke-miterlimit:4;stroke-dasharray:none;stroke-opacity:1"
           inkscape:export-xdpi="90"
           inkscape:export-ydpi="90" />
        <path
           sodipodi:nodetypes="ccccccccccccccccc"
           inkscape:connector-curvature="0"
           id="rect1197"
           d="m 308.31741,176.41224 1.55637,0.26458 1.55638,0.26459 1.55637,0.26458 1.55637,0.26459 1.45791,9.02696 -2.18686,9.02696 -0.72896,9.02696 1.45791,9.02696 -1.55637,-0.26459 -1.55637,-0.26458 -1.55638,-0.26459 -1.55637,-0.26458 -1.45791,-9.02696 0.72896,-9.02696 2.18686,-9.02696 z"
           style="opacity:0.60100002;fill:#000000;fill-opacity:1;stroke:#000000;stroke-width:0.34964031;stroke-miterlimit:4;stroke-dasharray:none;stroke-opacity:1"
           inkscape:export-xdpi="90"
           inkscape:export-ydpi="90" />
        <path
           sodipodi:nodetypes="ccccccccccccccccc"
           inkscape:connector-curvature="0"
           id="rect1199"
           d="m 323.18079,178.59117 1.55637,0.26458 1.55638,0.26458 1.55637,0.26459 1.55637,0.26458 1.45791,9.02696 -2.18686,9.02696 0.72895,9.02696 v 9.02696 l -1.55637,-0.26458 -1.55637,-0.26458 -1.55638,-0.26459 -1.55637,-0.26458 v -9.02696 l -0.72895,-9.02696 2.18686,-9.02696 z"
           style="opacity:0.60100002;fill:#000000;fill-opacity:1;stroke:#000000;stroke-width:0.34964031;stroke-miterlimit:4;stroke-dasharray:none;stroke-opacity:1"
           inkscape:export-xdpi="90"
           inkscape:export-ydpi="90" />
        <path
           sodipodi:nodetypes="ccccccccccccccccc"
           inkscape:connector-curvature="0"
           id="rect1201"
           d="m 338.04413,178.62229 1.55637,-0.26458 1.55638,-0.26458 1.55637,-0.26459 1.55637,-0.26458 -1.45791,9.02696 2.18686,9.02696 0.72896,9.02697 -1.45791,9.02696 -1.55637,0.26458 -1.55637,0.26459 -1.55638,0.26458 -1.55637,0.26458 1.45791,-9.02696 -0.72896,-9.02696 -2.18686,-9.02697 z"
           style="opacity:0.60100002;fill:#000000;fill-opacity:1;stroke:#000000;stroke-width:0.34964031;stroke-miterlimit:4;stroke-dasharray:none;stroke-opacity:1"
           inkscape:export-xdpi="90"
           inkscape:export-ydpi="90" />
        <path
           sodipodi:nodetypes="ccccccccccccccccc"
           inkscape:connector-curvature="0"
           id="rect1203"
           d="m 352.9075,173.01934 1.55637,-0.26458 1.55638,-0.26459 1.55637,-0.26458 1.55637,-0.26458 1.45791,9.02696 -2.91582,9.02696 0.72896,9.02697 0.72895,9.02696 -1.55637,0.26458 -1.55637,0.26458 -1.55638,0.26459 -1.55637,0.26458 -0.72895,-9.02696 -0.72896,-9.02697 2.91582,-9.02696 z"
           style="opacity:0.60100002;fill:#000000;fill-opacity:1;stroke:#000000;stroke-width:0.34964031;stroke-miterlimit:4;stroke-dasharray:none;stroke-opacity:1"
           inkscape:export-xdpi="90"
           inkscape:export-ydpi="90" />
        <path
           sodipodi:nodetypes="ccccccccccccccccc"
           inkscape:connector-curvature="0"
           id="rect1205"
           d="m 367.77084,168.03895 1.55637,-0.26458 1.55638,-0.26459 1.55637,-0.26458 1.55637,-0.26458 -1.45791,9.02696 0.72896,9.02696 -0.72896,9.02696 1.45791,9.02696 -1.55637,0.26458 -1.55637,0.26459 -1.55638,0.26458 -1.55637,0.26458 -1.45791,-9.02696 0.72896,-9.02696 -0.72896,-9.02696 z"
           style="opacity:0.60100002;fill:#000000;fill-opacity:1;stroke:#000000;stroke-width:0.34964031;stroke-miterlimit:4;stroke-dasharray:none;stroke-opacity:1"
           inkscape:export-xdpi="90"
           inkscape:export-ydpi="90" />
      </g>
    </g>
  </g>
</svg>
